<?xml version="1.0" encoding="UTF-8" standalone="no"?>
<svg
   xmlns:dc="http://purl.org/dc/elements/1.1/"
   xmlns:cc="http://creativecommons.org/ns#"
   xmlns:rdf="http://www.w3.org/1999/02/22-rdf-syntax-ns#"
   xmlns:svg="http://www.w3.org/2000/svg"
   xmlns="http://www.w3.org/2000/svg"
   xmlns:sodipodi="http://sodipodi.sourceforge.net/DTD/sodipodi-0.dtd"
   xmlns:inkscape="http://www.inkscape.org/namespaces/inkscape"
   width="17.5"
   height="17.066"
   viewBox="0 0 17.5 17.066"
   version="1.1"
   id="svg11"
   sodipodi:docname="add-comment.svg"
   inkscape:version="0.92.4 (5da689c313, 2019-01-14)">
  <metadata
     id="metadata17">
    <rdf:RDF>
      <cc:Work
         rdf:about="">
        <dc:format>image/svg+xml</dc:format>
        <dc:type
           rdf:resource="http://purl.org/dc/dcmitype/StillImage" />
      </cc:Work>
    </rdf:RDF>
  </metadata>
  <defs
     id="defs15" />
  <sodipodi:namedview
     pagecolor="#ffffff"
     bordercolor="#666666"
     borderopacity="1"
     objecttolerance="10"
     gridtolerance="10"
     guidetolerance="10"
     inkscape:pageopacity="0"
     inkscape:pageshadow="2"
     inkscape:window-width="2560"
     inkscape:window-height="1417"
     id="namedview13"
     showgrid="false"
     inkscape:zoom="13.828665"
     inkscape:cx="8.75"
     inkscape:cy="8.533"
     inkscape:window-x="-8"
     inkscape:window-y="-8"
     inkscape:window-maximized="1"
     inkscape:current-layer="svg11" />
  <g
     id="Add_Comment"
     data-name="Add Comment"
     transform="translate(-170.058 -304.446)">
    <g
       id="Group_51"
       data-name="Group 51">
      <g
         id="Group_1547"
         data-name="Group 1547">
        <path
           id="Path_667"
           data-name="Path 667"
           d="M185.437,321.512l-7.111-3.866h-3.518a4.755,4.755,0,0,1-4.75-4.75v-3.7a4.755,4.755,0,0,1,4.75-4.75h8a4.756,4.756,0,0,1,4.75,4.75v3.7a4.74,4.74,0,0,1-2.121,3.958Zm-10.629-15.566a3.254,3.254,0,0,0-3.25,3.25v3.7a3.254,3.254,0,0,0,3.25,3.25h3.9l5.229,2.843v-3.011l.4-.211a3.243,3.243,0,0,0,1.724-2.871v-3.7a3.254,3.254,0,0,0-3.25-3.25Z"
           fill="#3bb3cf"
           style="fill:#000000;fill-opacity:1" />
      </g>
    </g>
    <g
       id="Group_348"
       data-name="Group 348">
      <g
         id="Group_347"
         data-name="Group 347">
        <path
           id="Path_669"
           d="m 181.35,311.564 h -5 a 0.75,0.75 0 0 1 0,-1.5 h 5 a 0.75,0.75 0 1 1 0,1.5 z m -2.5,2.5 a 0.75,0.75 0 0 1 -0.75,-0.75 v -5 a 0.75,0.75 0 0 1 1.5,0 v 5 a 0.75,0.75 0 0 1 -0.75,0.75 z" />
      </g>
    </g>
  </g>
</svg>
