<?xml version="1.0" encoding="UTF-8" standalone="no"?>
<svg
   xmlns:dc="http://purl.org/dc/elements/1.1/"
   xmlns:cc="http://creativecommons.org/ns#"
   xmlns:rdf="http://www.w3.org/1999/02/22-rdf-syntax-ns#"
   xmlns:svg="http://www.w3.org/2000/svg"
   xmlns="http://www.w3.org/2000/svg"
   xmlns:sodipodi="http://sodipodi.sourceforge.net/DTD/sodipodi-0.dtd"
   xmlns:inkscape="http://www.inkscape.org/namespaces/inkscape"
   width="15"
   height="18"
   viewBox="0 0 15 18"
   version="1.1"
   id="svg19"
   sodipodi:docname="add-user.svg"
   inkscape:version="0.92.4 (5da689c313, 2019-01-14)">
  <metadata
     id="metadata25">
    <rdf:RDF>
      <cc:Work
         rdf:about="">
        <dc:format>image/svg+xml</dc:format>
        <dc:type
           rdf:resource="http://purl.org/dc/dcmitype/StillImage" />
      </cc:Work>
    </rdf:RDF>
  </metadata>
  <defs
     id="defs23" />
  <sodipodi:namedview
     pagecolor="#ffffff"
     bordercolor="#666666"
     borderopacity="1"
     objecttolerance="10"
     gridtolerance="10"
     guidetolerance="10"
     inkscape:pageopacity="0"
     inkscape:pageshadow="2"
     inkscape:window-width="2560"
     inkscape:window-height="1417"
     id="namedview21"
     showgrid="false"
     inkscape:zoom="52.444444"
     inkscape:cx="6.9279661"
     inkscape:cy="9"
     inkscape:window-x="-8"
     inkscape:window-y="-8"
     inkscape:window-maximized="1"
     inkscape:current-layer="svg19" />
  <g
     id="Add_User"
     data-name="Add User"
     transform="translate(66.192 -541.797)">
    <g
       id="Rectangle_250"
       data-name="Rectangle 250">
      <path
         id="Path_694"
         data-name="Path 694"
         d="m -55.77421,551.46077 c -0.433473,-0.81597 -1.086092,-1.49774 -1.879389,-1.96684 l 0.722603,-0.72803 c 0.95437,0.61995 1.72165,1.50356 2.198636,2.54762 z M -55.630559,559.8 H -64.245 c -1.074841,-0.001 -1.945898,-0.87216 -1.947,-1.947 V 553.8 c 0.0021,-2.14461 1.128193,-4.02596 2.820913,-5.08682 l 0.588316,0.81215 c -1.442835,0.87712 -2.407059,2.46316 -2.409229,4.27467 v 4.053 c 5.51e-4,0.52279 0.424215,0.94645 0.947,0.947 h 7.091136 z"
         inkscape:connector-curvature="0"
         style="fill:#000004;fill-opacity:1"
         sodipodi:nodetypes="cccccccccccccccc" />
    </g>
    <g
       id="Group_701"
       data-name="Group 701">
      <g
         id="Path_53-5"
         data-name="Path 53-5">
        <path
           id="Path_696"
           data-name="Path 696"
           d="M-55.692,551.8a3.5,3.5,0,0,0-3.5,3.5,3.5,3.5,0,0,0,3.5,3.5,3.5,3.5,0,0,0,3.5-3.5,3.5,3.5,0,0,0-3.5-3.5m0-1a4.5,4.5,0,0,1,4.5,4.5,4.5,4.5,0,0,1-4.5,4.5,4.5,4.5,0,0,1-4.5-4.5A4.5,4.5,0,0,1-55.692,550.8Z"
           fill="#3bb3cf"
           style="fill:#000000;fill-opacity:1" />
      </g>
      <g
         id="Group_250-3"
         data-name="Group 250-3">
        <g
           id="Group_1556"
           data-name="Group 1556">
          <path
             id="Path_359-3"
             data-name="Path 359-3"
             d="M-58.228,555.3h5.07"
             fill="#fff" />
          <path
             style="fill:#000000;fill-opacity:1"
             d="M 10.498047 10.464844 A 0.5 0.5 0 0 0 9.9980469 10.964844 L 9.9980469 13.003906 L 7.9628906 13.003906 A 0.5 0.5 0 0 0 7.4628906 13.503906 A 0.5 0.5 0 0 0 7.9628906 14.003906 L 9.9980469 14.003906 L 9.9980469 16.035156 A 0.5 0.5 0 0 0 10.498047 16.535156 A 0.5 0.5 0 0 0 10.998047 16.035156 L 10.998047 14.003906 L 13.033203 14.003906 A 0.5 0.5 0 0 0 13.533203 13.503906 A 0.5 0.5 0 0 0 13.033203 13.003906 L 10.998047 13.003906 L 10.998047 10.964844 A 0.5 0.5 0 0 0 10.498047 10.464844 z "
             transform="translate(-66.192,541.797)"
             id="Path_697" />
        </g>
        <g
           id="Group_1557"
           data-name="Group 1557">
          <path
             id="Path_360-3"
             data-name="Path 360-3"
             d="M-55.693,552.762v5.07"
             fill="#fff" />
        </g>
      </g>
    </g>
    <path
       d="M 6 0 A 4.5 4.5 0 0 0 1.5 4.5 A 4.5 4.5 0 0 0 6 9 A 4.5 4.5 0 0 0 10.5 4.5 A 4.5 4.5 0 0 0 6 0 z M 6 1 A 3.5 3.5 0 0 1 9.5 4.5 A 3.5 3.5 0 0 1 6 8 A 3.5 3.5 0 0 1 2.5 4.5 A 3.5 3.5 0 0 1 6 1 z "
       transform="translate(-66.192,541.797)"
       id="Ellipse_117" />
  </g>
</svg>
