<?xml version="1.0" encoding="UTF-8" standalone="no"?>
<svg
   xmlns:dc="http://purl.org/dc/elements/1.1/"
   xmlns:cc="http://creativecommons.org/ns#"
   xmlns:rdf="http://www.w3.org/1999/02/22-rdf-syntax-ns#"
   xmlns:svg="http://www.w3.org/2000/svg"
   xmlns="http://www.w3.org/2000/svg"
   xmlns:sodipodi="http://sodipodi.sourceforge.net/DTD/sodipodi-0.dtd"
   xmlns:inkscape="http://www.inkscape.org/namespaces/inkscape"
   width="18"
   height="18"
   viewBox="0 0 18 18"
   version="1.1"
   id="svg9"
   sodipodi:docname="add-circle.svg"
   inkscape:version="0.92.4 (5da689c313, 2019-01-14)">
  <metadata
     id="metadata15">
    <rdf:RDF>
      <cc:Work
         rdf:about="">
        <dc:format>image/svg+xml</dc:format>
        <dc:type
           rdf:resource="http://purl.org/dc/dcmitype/StillImage" />
      </cc:Work>
    </rdf:RDF>
  </metadata>
  <defs
     id="defs13" />
  <sodipodi:namedview
     pagecolor="#ffffff"
     bordercolor="#666666"
     borderopacity="1"
     objecttolerance="10"
     gridtolerance="10"
     guidetolerance="10"
     inkscape:pageopacity="0"
     inkscape:pageshadow="2"
     inkscape:window-width="2560"
     inkscape:window-height="1417"
     id="namedview11"
     showgrid="false"
     inkscape:zoom="13.111111"
     inkscape:cx="9"
     inkscape:cy="9"
     inkscape:window-x="-8"
     inkscape:window-y="-8"
     inkscape:window-maximized="1"
     inkscape:current-layer="svg9" />
  <g
     id="Add_with_Circle"
     data-name="Add with Circle"
     transform="translate(-410.808,-301.797)">
    <g
       id="Path_53-4"
       data-name="Path 53-4">
      <path
         id="Path_672"
         data-name="Path 672"
         d="m 419.808,301.8 a 9,9 0 1 1 -9,9 9,9 0 0 1 9,-9 z"
         inkscape:connector-curvature="0"
         style="fill:none" />
      <path
         id="Path_673"
         data-name="Path 673"
         d="m 419.808,303.3 a 7.5,7.5 0 1 0 7.5,7.5 7.508,7.508 0 0 0 -7.5,-7.5 m 0,-1.5 a 9,9 0 1 1 -9,9 9,9 0 0 1 9,-9 z"
         style="fill:#000000;fill-opacity:1"
         inkscape:connector-curvature="0" />
    </g>
    <g
       id="Group_250-2"
       data-name="Group 250-2">
      <path
         id="Path_674"
         data-name="Path 674"
         d="m 424.878,311.546 h -10.142 a 0.75,0.75 0 0 1 0,-1.5 h 10.142 a 0.75,0.75 0 0 1 0,1.5 z"
         inkscape:connector-curvature="0"
         style="fill:#000000;fill-opacity:1" />
      <path
         id="Path_675"
         data-name="Path 675"
         d="m 419.808,316.617 a 0.75,0.75 0 0 1 -0.75,-0.75 v -10.141 a 0.75,0.75 0 1 1 1.5,0 v 10.141 a 0.75,0.75 0 0 1 -0.75,0.75 z"
         inkscape:connector-curvature="0"
         style="fill:#000000;fill-opacity:1" />
    </g>
  </g>
</svg>
