<?xml version="1.0" encoding="UTF-8" standalone="no"?>
<svg
   xmlns:dc="http://purl.org/dc/elements/1.1/"
   xmlns:cc="http://creativecommons.org/ns#"
   xmlns:rdf="http://www.w3.org/1999/02/22-rdf-syntax-ns#"
   xmlns:svg="http://www.w3.org/2000/svg"
   xmlns="http://www.w3.org/2000/svg"
   xmlns:sodipodi="http://sodipodi.sourceforge.net/DTD/sodipodi-0.dtd"
   xmlns:inkscape="http://www.inkscape.org/namespaces/inkscape"
   width="20.75"
   height="23.046"
   viewBox="0 0 20.75 23.046"
   version="1.1"
   id="svg18"
   sodipodi:docname="approved-document.svg"
   inkscape:version="0.92.4 (5da689c313, 2019-01-14)">
  <metadata
     id="metadata24">
    <rdf:RDF>
      <cc:Work
         rdf:about="">
        <dc:format>image/svg+xml</dc:format>
        <dc:type
           rdf:resource="http://purl.org/dc/dcmitype/StillImage" />
      </cc:Work>
    </rdf:RDF>
  </metadata>
  <defs
     id="defs22" />
  <sodipodi:namedview
     pagecolor="#ffffff"
     bordercolor="#666666"
     borderopacity="1"
     objecttolerance="10"
     gridtolerance="10"
     guidetolerance="10"
     inkscape:pageopacity="0"
     inkscape:pageshadow="2"
     inkscape:window-width="2560"
     inkscape:window-height="1417"
     id="namedview20"
     showgrid="false"
     inkscape:zoom="40.961556"
     inkscape:cx="10.375"
     inkscape:cy="14.611539"
     inkscape:window-x="-8"
     inkscape:window-y="-8"
     inkscape:window-maximized="1"
     inkscape:current-layer="svg18" />
  <g
     id="Approved_Document"
     data-name="Approved Document"
     transform="translate(310.192 -758.297)">
    <g
       id="Group_1495"
       data-name="Group 1495">
      <g
         id="Rectangle_31-11"
         data-name="Rectangle 31-11">
        <path
           id="Path_732"
           data-name="Path 732"
           d="m -292.192,768.96554 v 9.37746 c 0,1.65685 -1.34315,3 -3,3 h -12 c -1.65685,0 -3,-1.34315 -3,-3 v -14.481 c 0,-1.65685 1.34315,-3 3,-3 h 6.88732 l -0.48826,1.5 h -6.39906 c -0.82843,0 -1.5,0.67157 -1.5,1.5 v 14.481 c 0,0.82843 0.67157,1.5 1.5,1.5 h 12 c 0.82843,0 1.5,-0.67157 1.5,-1.5 v -8.54741 z"
           inkscape:connector-curvature="0"
           style="fill:#3bb3cf"
           sodipodi:nodetypes="cssssssccsssssscc" />
      </g>
      <rect
         id="Rectangle_371"
         data-name="Rectangle 371"
         width="4.375"
         height="1"
         transform="translate(-306.692 768.343)"
         fill="#3bb3cf" />
      <rect
         id="Rectangle_372"
         data-name="Rectangle 372"
         width="4.375"
         height="1"
         transform="translate(-306.692 765.343)"
         fill="#3bb3cf" />
      <rect
         id="Rectangle_373"
         data-name="Rectangle 373"
         width="11"
         height="1"
         transform="translate(-306.692 771.343)"
         fill="#3bb3cf" />
      <rect
         id="Rectangle_374"
         data-name="Rectangle 374"
         width="11"
         height="1"
         transform="translate(-306.692 774.343)"
         fill="#3bb3cf" />
    </g>
    <g
       id="Group_1530"
       data-name="Group 1530">
      <g
         id="Group_1496"
         data-name="Group 1496">
        <g
           id="Ellipse_115"
           data-name="Ellipse 115">
          <path
             id="Path_733"
             data-name="Path 733"
             d="m -295.817,771.047 c -3.51944,-0.003 -6.37169,-2.85556 -6.375,-6.375 0.003,-3.51944 2.85556,-6.37169 6.375,-6.375 3.51922,0.004 6.37114,2.85578 6.375,6.375 -0.004,3.51922 -2.85578,6.37114 -6.375,6.375 z m 0,-11.25 c -2.69125,0.003 -4.87224,2.18375 -4.875,4.875 0.003,2.69102 2.18398,4.87169 4.875,4.875 2.69102,-0.003 4.87169,-2.18398 4.875,-4.875 -0.004,-2.69007 -2.18492,-4.86925 -4.875,-4.872 z"
             inkscape:connector-curvature="0"
             style="fill:#3bb3cf"
             sodipodi:nodetypes="ccccccccccc" />
        </g>
      </g>
      <g
         id="Group_1497"
         data-name="Group 1497">
        <path
           id="Path_734"
           data-name="Path 734"
           d="M-296.867,767.046h0a.745.745,0,0,1-.521-.21l-1.321-1.273a.751.751,0,0,1-.229-.541.743.743,0,0,1,.21-.52.75.75,0,0,1,1.06-.02l.811.783,2.781-2.591a.75.75,0,0,1,1.06.038.742.742,0,0,1,.2.511.745.745,0,0,1-.239.548l-3.3,3.074A.749.749,0,0,1-296.867,767.046Z"
           fill="#3bb3cf" />
      </g>
    </g>
  </g>
</svg>
