<svg xmlns="http://www.w3.org/2000/svg" width="10.369" height="15.758" viewBox="0 0 10.369 15.758">
  <path id="Path_583" data-name="Path 583" d="M303.645,79.8c-.043,0-.086,0-.129-.007a1.285,1.285,0,0,1-.668-.27l-3.106-2.347L296.63,79.53a1.288,1.288,0,0,1-2.068-.884l0-13.136a1.522,1.522,0,0,1,1.581-1.462h7.245a1.5,1.5,0,0,1,1.542,1.42v13.1A1.308,1.308,0,0,1,303.645,79.8Zm-7.927-1.462-.01.008Zm4.027-2.722a1.258,1.258,0,0,1,.746.246l2.941,2.222,0-12.575-7.326.037-.042,12.534,2.925-2.211A1.28,1.28,0,0,1,299.745,75.617Z" transform="translate(-294.559 -64.043)" fill="#FF5200"/>
</svg>
