<?xml version="1.0" encoding="UTF-8" standalone="no"?>
<svg
   xmlns:dc="http://purl.org/dc/elements/1.1/"
   xmlns:cc="http://creativecommons.org/ns#"
   xmlns:rdf="http://www.w3.org/1999/02/22-rdf-syntax-ns#"
   xmlns:svg="http://www.w3.org/2000/svg"
   xmlns="http://www.w3.org/2000/svg"
   xmlns:sodipodi="http://sodipodi.sourceforge.net/DTD/sodipodi-0.dtd"
   xmlns:inkscape="http://www.inkscape.org/namespaces/inkscape"
   width="20"
   height="20.001"
   viewBox="0 0 20 20.001"
   version="1.1"
   id="svg5"
   sodipodi:docname="checkbox-false.svg"
   inkscape:version="0.92.4 (5da689c313, 2019-01-14)">
  <metadata
     id="metadata11">
    <rdf:RDF>
      <cc:Work
         rdf:about="">
        <dc:format>image/svg+xml</dc:format>
        <dc:type
           rdf:resource="http://purl.org/dc/dcmitype/StillImage" />
      </cc:Work>
    </rdf:RDF>
  </metadata>
  <defs
     id="defs9" />
  <sodipodi:namedview
     pagecolor="#ffffff"
     bordercolor="#666666"
     borderopacity="1"
     objecttolerance="10"
     gridtolerance="10"
     guidetolerance="10"
     inkscape:pageopacity="0"
     inkscape:pageshadow="2"
     inkscape:window-width="2560"
     inkscape:window-height="1417"
     id="namedview7"
     showgrid="false"
     inkscape:zoom="11.79941"
     inkscape:cx="10"
     inkscape:cy="10.0005"
     inkscape:window-x="-8"
     inkscape:window-y="-8"
     inkscape:window-maximized="1"
     inkscape:current-layer="svg5" />
  <g
     id="Checkbox_False"
     data-name="Checkbox False"
     transform="translate(-289.808 -180.796)">
    <path
       id="Path_640"
       data-name="Path 640"
       d="M306.808,200.8h-14a3,3,0,0,1-3-3v-14a3,3,0,0,1,3-3h14a3,3,0,0,1,3,3v14A3,3,0,0,1,306.808,200.8Zm-14-18.5a1.5,1.5,0,0,0-1.5,1.5v14a1.5,1.5,0,0,0,1.5,1.5h14a1.5,1.5,0,0,0,1.5-1.5v-14a1.5,1.5,0,0,0-1.5-1.5Z"
       fill="#3bb3cf" />
  </g>
</svg>
