<?xml version="1.0" encoding="UTF-8" standalone="no"?>
<svg
   xmlns:dc="http://purl.org/dc/elements/1.1/"
   xmlns:cc="http://creativecommons.org/ns#"
   xmlns:rdf="http://www.w3.org/1999/02/22-rdf-syntax-ns#"
   xmlns:svg="http://www.w3.org/2000/svg"
   xmlns="http://www.w3.org/2000/svg"
   xmlns:sodipodi="http://sodipodi.sourceforge.net/DTD/sodipodi-0.dtd"
   xmlns:inkscape="http://www.inkscape.org/namespaces/inkscape"
   id="Group_1570"
   data-name="Group 1570"
   width="20"
   height="21"
   viewBox="0 0 20 21"
   version="1.1"
   sodipodi:docname="childTicked.svg"
   inkscape:version="0.92.4 (5da689c313, 2019-01-14)">
  <metadata
     id="metadata15">
    <rdf:RDF>
      <cc:Work
         rdf:about="">
        <dc:format>image/svg+xml</dc:format>
        <dc:type
           rdf:resource="http://purl.org/dc/dcmitype/StillImage" />
      </cc:Work>
    </rdf:RDF>
  </metadata>
  <defs
     id="defs13" />
  <sodipodi:namedview
     pagecolor="#ffffff"
     bordercolor="#666666"
     borderopacity="1"
     objecttolerance="10"
     gridtolerance="10"
     guidetolerance="10"
     inkscape:pageopacity="0"
     inkscape:pageshadow="2"
     inkscape:window-width="2560"
     inkscape:window-height="1417"
     id="namedview11"
     showgrid="false"
     inkscape:zoom="44.952381"
     inkscape:cx="10"
     inkscape:cy="10.5"
     inkscape:window-x="-8"
     inkscape:window-y="-8"
     inkscape:window-maximized="1"
     inkscape:current-layer="Group_1570" />
  <g
     id="Checkbox_True"
     data-name="Checkbox True"
     transform="translate(10.278 11.212)">
    <path
       style="fill:#4fbfd7"
       d="m 16,11 v 2 c 0,1.653351 -1.346649,3 -3,3 h -3 v 3 c 0,1.108 0.892,2 2,2 h 6 c 1.108,0 2,-0.892 2,-2 v -6 c 0,-1.108 -0.892,-2 -2,-2 z"
       transform="translate(-10.278,-11.212)"
       id="Rectangle_15"
       inkscape:connector-curvature="0"
       sodipodi:nodetypes="csscssssssc" />
  </g>
  <g
     id="Checkbox_True-2"
     data-name="Checkbox True">
    <g
       id="Rectangle_15-2"
       data-name="Rectangle 15"
       stroke-width="1"
       stroke="#fff"
       fill="#4fbfd7">
      <path
         style="stroke:none;stroke-width:0.90545553"
         d="m 3.5839512,0.77860169 h 9.0545548 c 1.504868,0 2.716367,1.21149941 2.716367,2.71636651 v 9.0545548 c 0,1.504867 -1.211499,2.716366 -2.716367,2.716366 H 3.5839512 c -1.5048671,0 -2.71636645,-1.211499 -2.71636645,-2.716366 V 3.4949682 c 0,-1.5048671 1.21149935,-2.71636651 2.71636645,-2.71636651 z"
         id="rect4"
         inkscape:connector-curvature="0" />
    </g>
  </g>
</svg>
