<?xml version="1.0" encoding="UTF-8" standalone="no"?>
<svg
   xmlns:dc="http://purl.org/dc/elements/1.1/"
   xmlns:cc="http://creativecommons.org/ns#"
   xmlns:rdf="http://www.w3.org/1999/02/22-rdf-syntax-ns#"
   xmlns:svg="http://www.w3.org/2000/svg"
   xmlns="http://www.w3.org/2000/svg"
   xmlns:sodipodi="http://sodipodi.sourceforge.net/DTD/sodipodi-0.dtd"
   xmlns:inkscape="http://www.inkscape.org/namespaces/inkscape"
   width="17.999"
   height="20.483"
   viewBox="0 0 17.999 20.483"
   version="1.1"
   id="svg16"
   sodipodi:docname="clipboard.svg"
   inkscape:version="0.92.4 (5da689c313, 2019-01-14)">
  <metadata
     id="metadata22">
    <rdf:RDF>
      <cc:Work
         rdf:about="">
        <dc:format>image/svg+xml</dc:format>
        <dc:type
           rdf:resource="http://purl.org/dc/dcmitype/StillImage" />
      </cc:Work>
    </rdf:RDF>
  </metadata>
  <defs
     id="defs20" />
  <sodipodi:namedview
     pagecolor="#ffffff"
     bordercolor="#666666"
     borderopacity="1"
     objecttolerance="10"
     gridtolerance="10"
     guidetolerance="10"
     inkscape:pageopacity="0"
     inkscape:pageshadow="2"
     inkscape:window-width="2560"
     inkscape:window-height="1417"
     id="namedview18"
     showgrid="false"
     inkscape:zoom="46.086999"
     inkscape:cx="8.9995003"
     inkscape:cy="10.2415"
     inkscape:window-x="-8"
     inkscape:window-y="-8"
     inkscape:window-maximized="1"
     inkscape:current-layer="svg16" />
  <g
     id="Clipboard"
     transform="translate(-50.56 -180.314)">
    <g
       id="Group_1542"
       data-name="Group 1542">
      <path
         id="Path_614"
         data-name="Path 614"
         d="M65.561,200.8h-12a3.009,3.009,0,0,1-3-3V183.314a3.009,3.009,0,0,1,3-3h1a.75.75,0,0,1,.75.75v2.389h8.5v-2.389a.75.75,0,0,1,.75-.75h1a3.009,3.009,0,0,1,3,3V197.8A3.008,3.008,0,0,1,65.561,200.8Zm-12-18.983a1.506,1.506,0,0,0-1.5,1.5V197.8a1.506,1.506,0,0,0,1.5,1.5h12a1.505,1.505,0,0,0,1.5-1.5V183.314a1.506,1.506,0,0,0-1.5-1.5H65.31V184.2a.75.75,0,0,1-.75.75h-10a.75.75,0,0,1-.75-.75v-2.389Z"
         fill="#3bb3cf" />
    </g>
    <rect
       id="Rectangle_326"
       data-name="Rectangle 326"
       width="8.379"
       height="1"
       transform="translate(56.683 192.796)"
       fill="#3bb3cf" />
    <rect
       id="Rectangle_327"
       data-name="Rectangle 327"
       width="8.379"
       height="1"
       transform="translate(56.683 195.796)"
       fill="#3bb3cf" />
    <rect
       id="Rectangle_328"
       data-name="Rectangle 328"
       width="8.379"
       height="1"
       transform="translate(56.683 189.796)"
       fill="#3bb3cf" />
    <rect
       id="Rectangle_329"
       data-name="Rectangle 329"
       width="8.379"
       height="1"
       transform="translate(56.683 186.796)"
       fill="#3bb3cf" />
    <g
       id="Group_267"
       data-name="Group 267">
      <path
         id="Path_615"
         data-name="Path 615"
         d="M54.433,193.8a.513.513,0,0,1-.516-.5.487.487,0,0,1,.485-.5h.031a.5.5,0,0,1,0,1Z"
         fill="#3bb3cf" />
      <path
         id="Path_616"
         data-name="Path 616"
         d="M54.433,196.8a.513.513,0,0,1-.516-.5.487.487,0,0,1,.485-.5h.031a.5.5,0,0,1,0,1Z"
         fill="#3bb3cf" />
      <path
         id="Path_617"
         data-name="Path 617"
         d="M54.433,190.8a.513.513,0,0,1-.516-.5.487.487,0,0,1,.485-.5h.031a.5.5,0,0,1,0,1Z"
         fill="#3bb3cf" />
      <path
         id="Path_618"
         data-name="Path 618"
         d="M54.433,187.8a.513.513,0,0,1-.516-.5.487.487,0,0,1,.485-.5h.031a.5.5,0,0,1,0,1Z"
         fill="#3bb3cf" />
    </g>
    <path
       id="Path_619"
       data-name="Path 619"
       d="M61.559,182.046h-4a.75.75,0,1,1,0-1.5h4a.75.75,0,0,1,0,1.5Z"
       fill="#3bb3cf" />
  </g>
</svg>
