<svg xmlns="http://www.w3.org/2000/svg" width="18" height="18" viewBox="0 0 18 18">
  <g id="Close_with_Circle" data-name="Close with Circle" transform="translate(-410.808 -62.797)">
    <g id="Group_370" data-name="Group 370">
      <g id="Path_53-2" data-name="Path 53-2">
        <path id="Path_584" data-name="Path 584" d="M419.808,62.8a9,9,0,1,1-9,9A9,9,0,0,1,419.808,62.8Z" fill="none"/>
        <path id="Path_585" data-name="Path 585" d="M419.808,64.3a7.5,7.5,0,1,0,7.5,7.5,7.508,7.508,0,0,0-7.5-7.5m0-1.5a9,9,0,1,1-9,9A9,9,0,0,1,419.808,62.8Z" fill="#56bcd2"/>
      </g>
      <g id="Group_250" data-name="Group 250">
        <path id="Path_586" data-name="Path 586" d="M423.394,76.133a.746.746,0,0,1-.531-.22l-7.171-7.171a.75.75,0,1,1,1.061-1.061l7.171,7.172a.75.75,0,0,1-.53,1.28Z" fill="#56bcd2"/>
        <path id="Path_587" data-name="Path 587" d="M416.223,76.133a.75.75,0,0,1-.531-1.28l7.171-7.172a.75.75,0,0,1,1.061,1.061l-7.171,7.171A.746.746,0,0,1,416.223,76.133Z" fill="#56bcd2"/>
      </g>
    </g>
  </g>
</svg>
