<svg xmlns="http://www.w3.org/2000/svg" width="17.491" height="17.052" viewBox="0 0 17.491 17.052">
  <g id="Comments" transform="translate(-170.943 -64.446)">
    <path id="Path_582" data-name="Path 582" d="M186.313,81.5,179.2,77.635h-3.509a4.756,4.756,0,0,1-4.75-4.75V69.2a4.756,4.756,0,0,1,4.75-4.75h7.991a4.756,4.756,0,0,1,4.75,4.75v3.69a4.739,4.739,0,0,1-2.121,3.956Zm-10.62-15.552a3.254,3.254,0,0,0-3.25,3.25v3.689a3.254,3.254,0,0,0,3.25,3.25h3.89l5.23,2.841v-3.01l.4-.212a3.244,3.244,0,0,0,1.723-2.868V69.2a3.254,3.254,0,0,0-3.25-3.25Z" fill="#FF5200"/>
  </g>
</svg>
