<?xml version="1.0" encoding="UTF-8" standalone="no"?>
<svg
   xmlns:dc="http://purl.org/dc/elements/1.1/"
   xmlns:cc="http://creativecommons.org/ns#"
   xmlns:rdf="http://www.w3.org/1999/02/22-rdf-syntax-ns#"
   xmlns:svg="http://www.w3.org/2000/svg"
   xmlns="http://www.w3.org/2000/svg"
   xmlns:sodipodi="http://sodipodi.sourceforge.net/DTD/sodipodi-0.dtd"
   xmlns:inkscape="http://www.inkscape.org/namespaces/inkscape"
   width="33"
   height="33"
   viewBox="0 0 33 33"
   version="1.1"
   id="svg10"
   sodipodi:docname="condition.svg"
   inkscape:version="0.92.4 (5da689c313, 2019-01-14)">
  <metadata
     id="metadata16">
    <rdf:RDF>
      <cc:Work
         rdf:about="">
        <dc:format>image/svg+xml</dc:format>
        <dc:type
           rdf:resource="http://purl.org/dc/dcmitype/StillImage" />
      </cc:Work>
    </rdf:RDF>
  </metadata>
  <defs
     id="defs14" />
  <sodipodi:namedview
     pagecolor="#ffffff"
     bordercolor="#666666"
     borderopacity="1"
     objecttolerance="10"
     gridtolerance="10"
     guidetolerance="10"
     inkscape:pageopacity="0"
     inkscape:pageshadow="2"
     inkscape:window-width="2560"
     inkscape:window-height="1417"
     id="namedview12"
     showgrid="false"
     inkscape:zoom="28.606061"
     inkscape:cx="16.5"
     inkscape:cy="11.909072"
     inkscape:window-x="-8"
     inkscape:window-y="-8"
     inkscape:window-maximized="1"
     inkscape:current-layer="svg10" />
  <g
     id="Condition"
     transform="translate(-642.808 -535.797)">
    <g
       id="Path_520"
       data-name="Path 520" />
    <g
       id="Group_1558"
       data-name="Group 1558" />
  </g>
  <path
     id="path849"
     style="color:#000000;font-style:normal;font-variant:normal;font-weight:normal;font-stretch:normal;font-size:medium;line-height:normal;font-family:sans-serif;font-variant-ligatures:normal;font-variant-position:normal;font-variant-caps:normal;font-variant-numeric:normal;font-variant-alternates:normal;font-feature-settings:normal;text-indent:0;text-align:start;text-decoration:none;text-decoration-line:none;text-decoration-style:solid;text-decoration-color:#000000;letter-spacing:normal;word-spacing:normal;text-transform:none;writing-mode:lr-tb;direction:ltr;text-orientation:mixed;dominant-baseline:auto;baseline-shift:baseline;text-anchor:start;white-space:normal;shape-padding:0;clip-rule:nonzero;display:inline;overflow:visible;visibility:visible;opacity:1;isolation:auto;mix-blend-mode:normal;color-interpolation:sRGB;color-interpolation-filters:linearRGB;solid-color:#000000;solid-opacity:1;vector-effect:none;fill:#000000;fill-opacity:1;fill-rule:nonzero;stroke:none;stroke-width:1.63399994;stroke-linecap:butt;stroke-linejoin:miter;stroke-miterlimit:4;stroke-dasharray:none;stroke-dashoffset:0;stroke-opacity:1;color-rendering:auto;image-rendering:auto;shape-rendering:auto;text-rendering:auto;enable-background:accumulate"
     d="m 17.646647,23.448781 c -0.373025,0.06069 -0.756041,0.09223 -1.146647,0.09223 -3.898584,0 -7.0410156,-3.142432 -7.0410156,-7.041016 0,-3.898584 3.1424316,-7.0410156 7.0410156,-7.0410156 3.898584,0 7.041016,3.1424316 7.041016,7.0410156 0,0.318016 -0.02091,0.631 -0.06143,0.937658 l 1.57499,0.511637 c 0.0797,-0.471433 0.121209,-0.955634 0.121209,-1.449295 0,-4.781663 -3.894118,-8.6757812 -8.675781,-8.6757812 -4.781663,0 -8.6757813,3.8941182 -8.6757812,8.6757812 0,4.781663 3.8941182,8.675781 8.6757812,8.675781 0.575043,0 1.13725,-0.05632 1.681391,-0.163726 z M 21.5897,22.8119 l 4.646,4.612 1.437,-1.437 -4.579,-4.579 3.777,-1.671 -11.1,-4.178 4.144,10.7 z M 33,16.5 C 33,25.6127 25.6127,33 16.5,33 7.3873,33 0,25.6127 0,16.5 0,7.3873 7.3873,0 16.5,0 25.6127,0 33,7.3873 33,16.5 Z" />
</svg>
