<?xml version="1.0" encoding="UTF-8"?>
<svg version="1.1" viewBox="0 0 26.5 24.707" xmlns="http://www.w3.org/2000/svg">
<g transform="translate(-1456.8 -161.36)" data-name="Contact Us">
<path d="m1464.3 161.32c-4.0246-0.0694-7.359 3.1512-7.4296 7.1758v4.8012c0.07 4.0252 3.4045 7.2465 7.4296 7.1777h5.1797l10.576 5.5527v-6.9336c1.9689-1.3025 3.2714-3.4135 3.3125-5.7969v-4.8012c-0.071-4.0237-3.4039-7.2439-7.4277-7.1758zm-0.025 1.5h11.7c3.2135-0.0544 5.8479 2.4896 5.9043 5.7031v4.7461c-0.035 2.0356-1.1509 3.8965-2.9297 4.8867l-0.3848 0.21484v5.1758l-8.707-4.5723h-5.5784c-3.2101 0.0548-5.8408-2.4834-5.9043-5.6914v-4.7736c0.064-3.2075 2.6948-5.7448 5.9043-5.6894z" color="#000000" fill="#00257b"/>
<g transform="rotate(-45 934.84 -1676.5)" data-name="+">
<g transform="translate(5.415,5.415)" fill="#00257b" shape-rendering="auto" data-name="Group 250">
<path d="m-0.76682-0.41757a0.75008 0.75008 0 0 0-0.52344 1.2891l5.4004 5.3984a0.75008 0.75008 0 1 0 1.0605-1.0605l-5.3984-5.4004a0.75008 0.75008 0 0 0-0.53906-0.22656z"/>
<path d="m5.3948 0.33243a0.75008 0.75008 0 0 0-1.2891-0.52344l-5.3984 5.4004a0.75008 0.75008 0 1 0 1.0605 1.0605l5.4004-5.3984a0.75008 0.75008 0 0 0 0.22656-0.53906z"/>
</g>
</g>
</g>
</svg>
