<svg xmlns="http://www.w3.org/2000/svg" width="25" height="25.001" viewBox="0 0 25 25.001">
  <g id="Darkmode_Inactive" data-name="Darkmode Inactive" transform="translate(193.692 -419.296)">
    <g id="Ellipse_18-2" data-name="Ellipse 18-2">
      <circle id="Ellipse_129" data-name="Ellipse 129" cx="12.5" cy="12.5" r="12.5" transform="translate(-193.692 419.297)" fill="#fff"/>
      <path id="Path_631" data-name="Path 631" d="M-181.192,444.3a12.514,12.514,0,0,1-12.5-12.5,12.514,12.514,0,0,1,12.5-12.5,12.515,12.515,0,0,1,12.5,12.5A12.515,12.515,0,0,1-181.192,444.3Zm0-23.5a11.013,11.013,0,0,0-11,11,11.012,11.012,0,0,0,11,11,11.013,11.013,0,0,0,11-11A11.013,11.013,0,0,0-181.192,420.8Z" fill="#0d2762"/>
    </g>
    <g id="Subtraction_5" data-name="Subtraction 5">
      <path id="Path_632" data-name="Path 632" d="M-181.24,438.34a6.505,6.505,0,0,1-6.5-6.5,6.5,6.5,0,0,1,2.376-5.026l9.147,9.15A6.5,6.5,0,0,1-181.24,438.34Z" fill="#0d2762"/>
      <path id="Path_633" data-name="Path 633" d="M-181.24,437.59a5.744,5.744,0,0,0,3.984-1.6l-8.129-8.132a5.748,5.748,0,0,0-1.6,3.987,5.754,5.754,0,0,0,5.749,5.747m0,1.5a7.257,7.257,0,0,1-7.249-7.247,7.244,7.244,0,0,1,3.2-6.014l10.063,10.066A7.243,7.243,0,0,1-181.24,439.09Z" fill="#0d2762"/>
    </g>
  </g>
</svg>
