<svg xmlns="http://www.w3.org/2000/svg" width="25" height="25.001" viewBox="0 0 25 25.001">
  <g id="Dashboard_Nav" data-name="Dashboard Nav" transform="translate(553.192 -418.796)">
    <g id="Ellipse_18" data-name="Ellipse 18">
      <circle id="Ellipse_128" data-name="Ellipse 128" cx="12.5" cy="12.5" r="12.5" transform="translate(-553.192 418.797)" fill="#fff"/>
      <path id="Path_624" data-name="Path 624" d="M-540.692,443.8a12.514,12.514,0,0,1-12.5-12.5,12.514,12.514,0,0,1,12.5-12.5,12.515,12.515,0,0,1,12.5,12.5A12.515,12.515,0,0,1-540.692,443.8Zm0-23.5a11.013,11.013,0,0,0-11,11,11.012,11.012,0,0,0,11,11,11.013,11.013,0,0,0,11-11A11.013,11.013,0,0,0-540.692,420.3Z" fill="#0d2762"/>
    </g>
    <path id="Path_625" data-name="Path 625" d="M-528.194,434.763l-1.164-.473-.016-.006c-.69-.186-7.163-1.526-11.439-2.4l-.875-.179,7.473-11.168.5.331a6.988,6.988,0,0,1,2.188,2.345c1.146,1.715,2.138,3.277,2.565,3.989.295.491.4,1.881.413,5.505,0,.426,0,.749.008.892Zm-1.517-.886h0Zm-9.986-2.989c5.923,1.21,8.661,1.772,9.947,2.1,0-.084,0-.174,0-.272a31.021,31.021,0,0,0-.25-4.906c-.412-.686-1.391-2.228-2.548-3.962a5.915,5.915,0,0,0-1.353-1.618Z" fill="#0d2762"/>
  </g>
</svg>
