<?xml version="1.0" encoding="UTF-8" standalone="no"?>
<svg
   xmlns:dc="http://purl.org/dc/elements/1.1/"
   xmlns:cc="http://creativecommons.org/ns#"
   xmlns:rdf="http://www.w3.org/1999/02/22-rdf-syntax-ns#"
   xmlns:svg="http://www.w3.org/2000/svg"
   xmlns="http://www.w3.org/2000/svg"
   xmlns:sodipodi="http://sodipodi.sourceforge.net/DTD/sodipodi-0.dtd"
   xmlns:inkscape="http://www.inkscape.org/namespaces/inkscape"
   width="18"
   height="15.001"
   viewBox="0 0 18 15.001"
   version="1.1"
   id="svg26"
   sodipodi:docname="data-store.svg"
   inkscape:version="0.92.4 (5da689c313, 2019-01-14)">
  <metadata
     id="metadata32">
    <rdf:RDF>
      <cc:Work
         rdf:about="">
        <dc:format>image/svg+xml</dc:format>
        <dc:type
           rdf:resource="http://purl.org/dc/dcmitype/StillImage" />
      </cc:Work>
    </rdf:RDF>
  </metadata>
  <defs
     id="defs30" />
  <sodipodi:namedview
     pagecolor="#ffffff"
     bordercolor="#666666"
     borderopacity="1"
     objecttolerance="10"
     gridtolerance="10"
     guidetolerance="10"
     inkscape:pageopacity="0"
     inkscape:pageshadow="2"
     inkscape:window-width="2560"
     inkscape:window-height="1417"
     id="namedview28"
     showgrid="false"
     inkscape:zoom="62.929136"
     inkscape:cx="9"
     inkscape:cy="7.5005002"
     inkscape:window-x="-8"
     inkscape:window-y="-8"
     inkscape:window-maximized="1"
     inkscape:current-layer="svg26" />
  <g
     id="Data_Store"
     data-name="Data Store"
     transform="translate(309.192 -303.796)">
    <g
       id="Group_519"
       data-name="Group 519">
      <g
         id="Rectangle_156"
         data-name="Rectangle 156">
        <path
           id="Path_656"
           data-name="Path 656"
           d="M-293.192,310.8h-14a2,2,0,0,1-2-2v-3a2,2,0,0,1,2-2h14a2,2,0,0,1,2,2v3A2,2,0,0,1-293.192,310.8Zm-14-5.5a.5.5,0,0,0-.5.5v3a.5.5,0,0,0,.5.5h14a.5.5,0,0,0,.5-.5v-3a.5.5,0,0,0-.5-.5Z"
           fill="#3bb3cf" />
      </g>
      <g
         id="Ellipse_56"
         data-name="Ellipse 56">
        <path
           id="Path_657"
           data-name="Path 657"
           d="M-305.192,308.3a1,1,0,0,1-1-1,1,1,0,0,1,1-1,1,1,0,0,1,1,1A1,1,0,0,1-305.192,308.3Zm0-1.5a.5.5,0,0,0-.5.5.5.5,0,0,0,.5.5.5.5,0,0,0,.5-.5A.5.5,0,0,0-305.192,306.8Z"
           fill="#3bb3cf" />
      </g>
      <rect
         id="Rectangle_349"
         data-name="Rectangle 349"
         width="1"
         height="2"
         transform="translate(-297.192 306.296)"
         fill="#3bb3cf" />
      <rect
         id="Rectangle_350"
         data-name="Rectangle 350"
         width="1"
         height="2"
         transform="translate(-295.192 306.296)"
         fill="#3bb3cf" />
      <rect
         id="Rectangle_351"
         data-name="Rectangle 351"
         width="1"
         height="2"
         transform="translate(-299.192 306.296)"
         fill="#3bb3cf" />
    </g>
    <g
       id="Rectangle_157"
       data-name="Rectangle 157">
      <path
         id="Path_658"
         data-name="Path 658"
         d="M-293.192,312.8h-14v-3h14Zm-13-1h12v-1h-12Z"
         fill="#3bb3cf" />
    </g>
    <g
       id="Group_523"
       data-name="Group 523">
      <g
         id="Rectangle_156-2"
         data-name="Rectangle 156-2">
        <path
           id="Path_659"
           data-name="Path 659"
           d="M-293.192,318.8h-14a2,2,0,0,1-2-2v-3a2,2,0,0,1,2-2h14a2,2,0,0,1,2,2v3A2,2,0,0,1-293.192,318.8Zm-14-5.5a.5.5,0,0,0-.5.5v3a.5.5,0,0,0,.5.5h14a.5.5,0,0,0,.5-.5v-3a.5.5,0,0,0-.5-.5Z"
           fill="#3bb3cf" />
      </g>
      <g
         id="Ellipse_56-2"
         data-name="Ellipse 56-2">
        <path
           id="Path_660"
           data-name="Path 660"
           d="M-305.192,316.3a1,1,0,0,1-1-1,1,1,0,0,1,1-1,1,1,0,0,1,1,1A1,1,0,0,1-305.192,316.3Zm0-1.5a.5.5,0,0,0-.5.5.5.5,0,0,0,.5.5.5.5,0,0,0,.5-.5A.5.5,0,0,0-305.192,314.8Z"
           fill="#3bb3cf" />
      </g>
      <rect
         id="Rectangle_354"
         data-name="Rectangle 354"
         width="1"
         height="2"
         transform="translate(-297.192 314.296)"
         fill="#3bb3cf" />
      <rect
         id="Rectangle_355"
         data-name="Rectangle 355"
         width="1"
         height="2"
         transform="translate(-295.192 314.296)"
         fill="#3bb3cf" />
      <rect
         id="Rectangle_356"
         data-name="Rectangle 356"
         width="1"
         height="2"
         transform="translate(-299.192 314.296)"
         fill="#3bb3cf" />
    </g>
  </g>
</svg>
