<?xml version="1.0" encoding="UTF-8" standalone="no"?>
<svg
   xmlns:dc="http://purl.org/dc/elements/1.1/"
   xmlns:cc="http://creativecommons.org/ns#"
   xmlns:rdf="http://www.w3.org/1999/02/22-rdf-syntax-ns#"
   xmlns:svg="http://www.w3.org/2000/svg"
   xmlns="http://www.w3.org/2000/svg"
   xmlns:sodipodi="http://sodipodi.sourceforge.net/DTD/sodipodi-0.dtd"
   xmlns:inkscape="http://www.inkscape.org/namespaces/inkscape"
   width="18"
   height="17.959"
   viewBox="0 0 18 17.959"
   version="1.1"
   id="svg22"
   sodipodi:docname="date-picker.svg"
   inkscape:version="0.92.4 (5da689c313, 2019-01-14)">
  <metadata
     id="metadata28">
    <rdf:RDF>
      <cc:Work
         rdf:about="">
        <dc:format>image/svg+xml</dc:format>
        <dc:type
           rdf:resource="http://purl.org/dc/dcmitype/StillImage" />
      </cc:Work>
    </rdf:RDF>
  </metadata>
  <defs
     id="defs26" />
  <sodipodi:namedview
     pagecolor="#ffffff"
     bordercolor="#666666"
     borderopacity="1"
     objecttolerance="10"
     gridtolerance="10"
     guidetolerance="10"
     inkscape:pageopacity="0"
     inkscape:pageshadow="2"
     inkscape:window-width="2560"
     inkscape:window-height="1417"
     id="namedview24"
     showgrid="false"
     inkscape:zoom="13.141044"
     inkscape:cx="9"
     inkscape:cy="8.9794998"
     inkscape:window-x="-8"
     inkscape:window-y="-8"
     inkscape:window-maximized="1"
     inkscape:current-layer="svg22" />
  <g
     id="Date_Picker"
     data-name="Date Picker"
     transform="translate(189.438 -181.358)">
    <g
       id="Rectangle_31-6"
       data-name="Rectangle 31-6">
      <path
         id="Path_607"
         data-name="Path 607"
         d="M-174.438,199.316h-12a3,3,0,0,1-3-3v-10a3,3,0,0,1,3-3h12a3,3,0,0,1,3,3v10A3,3,0,0,1-174.438,199.316Zm-12-14.5a1.5,1.5,0,0,0-1.5,1.5v10a1.5,1.5,0,0,0,1.5,1.5h12a1.5,1.5,0,0,0,1.5-1.5v-10a1.5,1.5,0,0,0-1.5-1.5Z"
         fill="#3bb3cf" />
    </g>
    <g
       id="Group_276"
       data-name="Group 276">
      <rect
         id="Rectangle_316"
         data-name="Rectangle 316"
         width="2.183"
         height="1"
         transform="translate(-185.938 190.796)"
         fill="#3bb3cf" />
      <rect
         id="Rectangle_317"
         data-name="Rectangle 317"
         width="2.183"
         height="1"
         transform="translate(-181.53 190.795)"
         fill="#3bb3cf" />
      <rect
         id="Rectangle_318"
         data-name="Rectangle 318"
         width="2.183"
         height="1"
         transform="translate(-177.121 190.795)"
         fill="#3bb3cf" />
    </g>
    <g
       id="Group_277"
       data-name="Group 277">
      <rect
         id="Rectangle_319"
         data-name="Rectangle 319"
         width="2.183"
         height="1"
         transform="translate(-185.938 192.796)"
         fill="#3bb3cf" />
      <rect
         id="Rectangle_320"
         data-name="Rectangle 320"
         width="2.183"
         height="1"
         transform="translate(-181.53 192.795)"
         fill="#3bb3cf" />
      <rect
         id="Rectangle_321"
         data-name="Rectangle 321"
         width="2.183"
         height="1"
         transform="translate(-177.121 192.795)"
         fill="#3bb3cf" />
    </g>
    <g
       id="Group_278"
       data-name="Group 278">
      <rect
         id="Rectangle_322"
         data-name="Rectangle 322"
         width="2.183"
         height="1"
         transform="translate(-185.938 194.796)"
         fill="#3bb3cf" />
      <rect
         id="Rectangle_323"
         data-name="Rectangle 323"
         width="2.183"
         height="1"
         transform="translate(-181.53 194.795)"
         fill="#3bb3cf" />
      <rect
         id="Rectangle_324"
         data-name="Rectangle 324"
         width="2.183"
         height="1"
         transform="translate(-177.121 194.795)"
         fill="#3bb3cf" />
    </g>
    <g
       id="Group_279"
       data-name="Group 279">
      <path
         id="Path_608"
         data-name="Path 608"
         d="M-184.254,188.233a.75.75,0,0,1-.75-.75v-5.375a.75.75,0,0,1,.75-.75.75.75,0,0,1,.75.75v5.375A.75.75,0,0,1-184.254,188.233Z"
         fill="#3bb3cf" />
      <path
         id="Path_609"
         data-name="Path 609"
         d="M-176.629,188.233a.75.75,0,0,1-.75-.75v-5.375a.75.75,0,0,1,.75-.75.75.75,0,0,1,.75.75v5.375A.75.75,0,0,1-176.629,188.233Z"
         fill="#3bb3cf" />
    </g>
    <rect
       id="Rectangle_325"
       data-name="Rectangle 325"
       width="16"
       height="2"
       transform="translate(-188.692 184.296)"
       fill="#3bb3cf" />
  </g>
</svg>
