<svg xmlns="http://www.w3.org/2000/svg" width="18.5" height="19.478" viewBox="0 0 18.5 19.478">
  <g id="Delete" transform="translate(429.089 -181.059)">
    <g id="Rectangle_26" data-name="Rectangle 26">
      
      <path id="Path_600" data-name="Path 600" d="M-415.447,200.537h-8.783a3,3,0,0,1-3-3V187.254a1.5,1.5,0,0,1,1.5-1.5h11.783a1.5,1.5,0,0,1,1.5,1.5v10.283A3,3,0,0,1-415.447,200.537Zm-10.283-13.283v10.283a1.5,1.5,0,0,0,1.5,1.5h8.783a1.5,1.5,0,0,0,1.5-1.5V187.254Zm0-.75v.75h0Z" fill="#FF5200"/>
    </g>
    <path id="Path_601" data-name="Path 601" d="M-411.339,186.874h-17a.75.75,0,0,1-.75-.75.75.75,0,0,1,.75-.75h17a.75.75,0,0,1,.75.75A.75.75,0,0,1-411.339,186.874Z" fill="#FF5200"/>
    <g id="Rectangle_27" data-name="Rectangle 27">
    
      <path id="Path_603" data-name="Path 603" d="M-416.166,186.494h-7.347a1.5,1.5,0,0,1-1.5-1.5v-.935a3,3,0,0,1,3-3h4.347a3,3,0,0,1,3,3v.935A1.5,1.5,0,0,1-416.166,186.494Zm-5.847-3.935a1.5,1.5,0,0,0-1.5,1.5v.935h7.348v-.935a1.5,1.5,0,0,0-1.5-1.5Z" fill="#FF5200"/>
    </g>
    <path id="Path_604" data-name="Path 604" d="M-422.426,196.2a.75.75,0,0,1-.75-.75v-4.608a.75.75,0,0,1,.75-.75.75.75,0,0,1,.75.75v4.608A.75.75,0,0,1-422.426,196.2Z" fill="#FF5200"/>
    <path id="Path_605" data-name="Path 605" d="M-417.252,196.2a.75.75,0,0,1-.75-.75v-4.608a.75.75,0,0,1,.75-.75.75.75,0,0,1,.75.75v4.608A.75.75,0,0,1-417.252,196.2Z" fill="#FF5200"/>
  </g>
</svg>
