<?xml version="1.0" encoding="UTF-8"?>
<svg version="1.1" viewBox="0 0 20 21.047" xmlns="http://www.w3.org/2000/svg">
<g transform="matrix(.99682 0 0 .99682 -22.491 1.1432)" data-name="Doc History">
<g data-name="Rectangle 31">
<path d="m37.585-0.5128h-12c-1.649 0-3 1.351-3 3v14.48c0 1.649 1.351 3 3 3h12c1.649 0 3-1.351 3-3v-10.48l-1.5 0.75979v9.7207c0 0.84397-0.65603 1.5-1.5 1.5h-12c-0.84397 0-1.5-0.65603-1.5-1.5v-14.48c0-0.84397 0.65603-1.5 1.5-1.5h8.2675z" color="#000000" color-rendering="auto" dominant-baseline="auto" fill="#4fbfd7" image-rendering="auto" shape-rendering="auto" solid-color="#000000" style="font-feature-settings:normal;font-variant-alternates:normal;font-variant-caps:normal;font-variant-ligatures:normal;font-variant-numeric:normal;font-variant-position:normal;isolation:auto;mix-blend-mode:normal;shape-padding:0;text-decoration-color:#000000;text-decoration-line:none;text-decoration-style:solid;text-indent:0;text-orientation:mixed;text-transform:none;white-space:normal"/>
</g>
<path d="m26.085 12.967v1h11v-1z" fill="#4fbfd7"/>
<path d="m26.085 6.9672v1h7.3537v-1z" fill="#4fbfd7"/>
<path d="m26.085 9.9672v1h11v-1z" fill="#4fbfd7"/>
<path d="m26.085 3.9672v1h5.957v-1z" fill="#4fbfd7"/>
<g transform="translate(11 .196)" data-name="Warning with Circle">
<g transform="translate(0 .237)" data-name="Ellipse 24">
<path d="m26.685-1.5187c-2.7017 0-4.9043 2.2045-4.9043 4.9062s2.2026 4.9043 4.9043 4.9043 4.9062-2.2026 4.9062-4.9043-2.2045-4.9062-4.9062-4.9062zm0 1.2266c2.039 0 3.6797 1.6407 3.6797 3.6797s-1.6407 3.6777-3.6797 3.6777-3.6777-1.6387-3.6777-3.6777 1.6387-3.6797 3.6777-3.6797z" fill="#4fbfd7"/>
</g>
</g>
<g transform="translate(14.5,2.276)" fill="#4fbfd7" data-name="Group 1572">
<path d="m23.035-1.7687a0.45989 0.45989 0 0 0-0.45312 0.4668v3.2578a0.45996 0.45996 0 1 0 0.91992 0v-3.2578a0.45989 0.45989 0 0 0-0.4668-0.4668z"/>
<path d="m23.043 1.495a0.45996 0.45996 0 1 0 0 0.91992h1.9844a0.45996 0.45996 0 1 0 0-0.91992z"/>
</g>
</g>
</svg>
