<?xml version="1.0" encoding="UTF-8"?>
<svg version="1.1" viewBox="0 0 18.246 21" xmlns="http://www.w3.org/2000/svg" xmlns:cc="http://creativecommons.org/ns#" xmlns:dc="http://purl.org/dc/elements/1.1/" xmlns:rdf="http://www.w3.org/1999/02/22-rdf-syntax-ns#">
<g transform="translate(410.35 -300.66)" data-name="Document Upload">
<g data-name="Group 489">
<g data-name="Rectangle 31-7">
<path d="m-392.31 311.61v7.0358c0 1.6568-1.3432 3-3 3h-12c-1.6568 0-3-1.3432-3-3v-14.48c0-1.6568 1.3432-3 3-3h4.8528v1.5h-4.8528c-0.82843 0-1.5 0.67157-1.5 1.5v14.48c0 0.82843 0.67157 1.5 1.5 1.5h12c0.82843 0 1.5-0.67157 1.5-1.5v-7.0358z" fill="#3bb3cf" data-name="Path 653"/>
</g>
<path d="m-406.81 311.64h8.246v1h-8.246z" fill="#3bb3cf"/>
<path d="m-406.81 314.64h11v1h-11z" fill="#3bb3cf"/>
<path d="m-406.81 308.64h6.0614v1h-6.0614z" fill="#3bb3cf" stroke-width=".74232"/>
<path d="m-406.81 305.64h4.4598v1h-4.4598z" fill="#3bb3cf" stroke-width=".63673"/>
</g>
<g data-name="Group 491">
<g data-name="Group 1546">
<path d="m-393.1 305.85a0.993 0.993 0 0 1-0.707-0.293l-2.454-2.454-2.455 2.454a1 1 0 0 1-1.415 0 1 1 0 0 1-0.293-0.707 1 1 0 0 1 0.293-0.707l3.163-3.161a1 1 0 0 1 1.414 0l3.161 3.161a1 1 0 0 1 0.293 0.707 1 1 0 0 1-0.293 0.707 1 1 0 0 1-0.707 0.293z" fill="#3bb3cf" data-name="Path 654"/>
</g>
<path d="m-396.26 310.57a1 1 0 0 1-1-1v-7.6a1 1 0 0 1 1-1 1 1 0 0 1 1 1v7.6a1 1 0 0 1-1 1z" fill="#3bb3cf" data-name="Path 655"/>
</g>
</g>
</svg>
