<svg xmlns="http://www.w3.org/2000/svg" width="18" height="20.48" viewBox="0 0 18 20.48">
  <g id="Document" transform="translate(309.192 -181.364)">
    <g id="Rectangle_31-5" data-name="Rectangle 31-5">
   
      <path id="Path_606" data-name="Path 606" d="M-294.192,201.844h-12a3,3,0,0,1-3-3v-14.48a3,3,0,0,1,3-3h12a3,3,0,0,1,3,3v14.48A3,3,0,0,1-294.192,201.844Zm-12-18.98a1.5,1.5,0,0,0-1.5,1.5v14.48a1.5,1.5,0,0,0,1.5,1.5h12a1.5,1.5,0,0,0,1.5-1.5v-14.48a1.5,1.5,0,0,0-1.5-1.5Z" fill="#3bb3cf"/>
    </g>
    <rect id="Rectangle_310" data-name="Rectangle 310" width="11" height="1" transform="translate(-305.692 191.844)" fill="#5d5d5d"/>
    <rect id="Rectangle_311" data-name="Rectangle 311" width="11" height="1" transform="translate(-305.692 194.844)" fill="#3bb3cf"/>
    <rect id="Rectangle_312" data-name="Rectangle 312" width="11" height="1" transform="translate(-305.692 188.844)" fill="#3bb3cf"/>
    <rect id="Rectangle_313" data-name="Rectangle 313" width="11" height="1" transform="translate(-305.692 191.844)" fill="#3bb3cf"/>
    <rect id="Rectangle_314" data-name="Rectangle 314" width="11" height="1" transform="translate(-305.692 185.844)" fill="#3bb3cf"/>
  </g>
</svg>
