<svg xmlns="http://www.w3.org/2000/svg" width="18.246" height="21" viewBox="0 0 18.246 21">
  <g id="Document_Upload" data-name="Document Upload" transform="translate(429.438 -300.797)">
    <g id="Group_489" data-name="Group 489">
      <g id="Rectangle_31-7" data-name="Rectangle 31-7">
        <rect id="Rectangle_343" data-name="Rectangle 343" width="18" height="20.48" rx="3" transform="translate(-429.438 301.317)" fill="#fff"/>
        <path id="Path_653" data-name="Path 653" d="M-414.438,321.8h-12a3,3,0,0,1-3-3v-14.48a3,3,0,0,1,3-3h12a3,3,0,0,1,3,3V318.8A3,3,0,0,1-414.438,321.8Zm-12-18.98a1.5,1.5,0,0,0-1.5,1.5V318.8a1.5,1.5,0,0,0,1.5,1.5h12a1.5,1.5,0,0,0,1.5-1.5v-14.48a1.5,1.5,0,0,0-1.5-1.5Z" fill="#50ad78"/>
      </g>
      <rect id="Rectangle_344" data-name="Rectangle 344" width="8.246" height="1" transform="translate(-425.938 311.796)" fill="#50ad78"/>
      <rect id="Rectangle_345" data-name="Rectangle 345" width="11" height="1" transform="translate(-425.938 314.796)" fill="#50ad78"/>
      <rect id="Rectangle_346" data-name="Rectangle 346" width="11" height="1" transform="translate(-425.938 308.796)" fill="#50ad78"/>
      <rect id="Rectangle_347" data-name="Rectangle 347" width="11" height="1" transform="translate(-425.938 305.796)" fill="#50ad78"/>
    </g>
    <rect id="Rectangle_150" data-name="Rectangle 150" width="10" height="11" transform="translate(-421.192 300.797)" fill="#fff"/>
    <g id="Group_491" data-name="Group 491">
      <g id="Group_1546" data-name="Group 1546">
        <path id="Union_8-3" data-name="Union 8-3" d="M-415.858,302.468l3.161,3.162Zm0,0-3.162,3.162Z" fill="#fff"/>
        <path id="Path_654" data-name="Path 654" d="M-412.7,306.629a.993.993,0,0,1-.707-.293l-2.454-2.454-2.455,2.454a1,1,0,0,1-1.415,0,1,1,0,0,1-.293-.707,1,1,0,0,1,.293-.707l3.163-3.161a1,1,0,0,1,1.414,0l3.161,3.161a1,1,0,0,1,.293.707,1,1,0,0,1-.293.707A1,1,0,0,1-412.7,306.629Z" fill="#50ad78"/>
      </g>
      <path id="Path_655" data-name="Path 655" d="M-415.854,311.349a1,1,0,0,1-1-1v-7.6a1,1,0,0,1,1-1,1,1,0,0,1,1,1v7.6A1,1,0,0,1-415.854,311.349Z" fill="#50ad78"/>
    </g>
  </g>
</svg>
