<svg xmlns="http://www.w3.org/2000/svg" width="12.5" height="10.999" viewBox="0 0 12.5 10.999">
  <g id="Double_Right_Arrow" data-name="Double Right Arrow" transform="translate(-293.724 -547.197)">
    <path id="Path_702" data-name="Path 702" d="M294.724,558.2a1,1,0,0,1-.707-1.707l3.793-3.793-3.793-3.793a1,1,0,0,1,1.414-1.414l4.5,4.5a1,1,0,0,1,0,1.414l-4.5,4.5A1,1,0,0,1,294.724,558.2Z" fill="#3bb3cf"/>
    <g id="Group_1331" data-name="Group 1331">
      <path id="Path_703" data-name="Path 703" d="M300.724,558.2a1,1,0,0,1-.707-1.707l3.793-3.793-3.793-3.793a1,1,0,0,1,1.414-1.414l4.5,4.5a1,1,0,0,1,0,1.414l-4.5,4.5A1,1,0,0,1,300.724,558.2Z" fill="#3bb3cf"/>
    </g>
  </g>
</svg>
