<svg xmlns="http://www.w3.org/2000/svg" width="12.5" height="10.999" viewBox="0 0 12.5 10.999">
  <g id="Double_Left_Arrow" data-name="Double Left Arrow" transform="translate(-172.724 -547.197)">
    <path id="Path_700" data-name="Path 700" d="M184.224,558.2a.993.993,0,0,1-.707-.293l-4.5-4.5a1,1,0,0,1,0-1.414l4.5-4.5a1,1,0,1,1,1.414,1.414l-3.793,3.793,3.793,3.793a1,1,0,0,1-.707,1.707Z" fill="#3bb3cf"/>
    <g id="Group_1329" data-name="Group 1329">
      <path id="Path_701" data-name="Path 701" d="M178.224,558.2a.993.993,0,0,1-.707-.293l-4.5-4.5a1,1,0,0,1,0-1.414l4.5-4.5a1,1,0,1,1,1.414,1.414l-3.793,3.793,3.793,3.793a1,1,0,0,1-.707,1.707Z" fill="#3bb3cf"/>
    </g>
  </g>
</svg>
