<svg xmlns="http://www.w3.org/2000/svg" width="18.369" height="16.136" viewBox="0 0 18.369 16.136">
  <g id="Download" transform="translate(189.944 -765.094)">
    <path id="Path_729" data-name="Path 729" d="M-187.49,781.23a2.522,2.522,0,0,1-2.45-2.243l0-7.713a2.532,2.532,0,0,1,2.729-2.311l1.386,0a.75.75,0,0,1,.75.75.75.75,0,0,1-.75.75h-1.453a1.042,1.042,0,0,0-1.167.9l.005,7.549a1,1,0,0,0,1.1.819l13.112,0a1.052,1.052,0,0,0,1.166-.9l0-7.549a1.011,1.011,0,0,0-1.1-.817l-1.507,0a.75.75,0,0,1-.75-.75.75.75,0,0,1,.75-.75h1.44a2.5,2.5,0,0,1,2.657,2.232l.005,7.713a2.542,2.542,0,0,1-2.729,2.313l-12.978,0A2.075,2.075,0,0,1-187.49,781.23Z" fill="#bcbcbc"/>
    <g id="Group_1190" data-name="Group 1190">
      <g id="Group_1188" data-name="Group 1188">
        <path id="Path_730" data-name="Path 730" d="M-180.758,777.96h-.01a.755.755,0,0,1-.4-.122l0,0h0l0,0h0l0,0h0l0,0h0l0,0h0l0,0h0l0,0h0a.568.568,0,0,1-.076-.063h0v0h0s0,.011,0,0h0v0h0l0,0h0l-3.3-3.3a.744.744,0,0,1-.22-.53.744.744,0,0,1,.22-.53.749.749,0,0,1,1.06,0l2.77,2.77,2.77-2.77a.749.749,0,0,1,1.06,0,.744.744,0,0,1,.22.53.744.744,0,0,1-.22.53l-3.3,3.3h0l0,0h0l0,0h0l0,0h0s0,0,0,0h0l0,0,0,0h0l0,0h0v0h0s0-.008,0,0h0l0,0h0a.741.741,0,0,1-.465.186h-.03Z" fill="#bcbcbc"/>
      </g>
      <path id="Path_731" data-name="Path 731" d="M-180.758,777.338a.75.75,0,0,1-.75-.75V765.844a.75.75,0,0,1,.75-.75.75.75,0,0,1,.75.75v10.744A.75.75,0,0,1-180.758,777.338Z" fill="#bcbcbc"/>
    </g>
  </g>
</svg>
