<?xml version="1.0" encoding="UTF-8"?>
<svg width="60" height="58" version="1.1" viewBox="0 0 60 58.000002" xmlns="http://www.w3.org/2000/svg" xmlns:cc="http://creativecommons.org/ns#" xmlns:dc="http://purl.org/dc/elements/1.1/" xmlns:rdf="http://www.w3.org/1999/02/22-rdf-syntax-ns#">
<metadata>
<rdf:RDF>
<cc:Work rdf:about="">
<dc:format>image/svg+xml</dc:format>
<dc:type rdf:resource="http://purl.org/dc/dcmitype/StillImage"/>
<dc:title/>
</cc:Work>
</rdf:RDF>
</metadata>
<g transform="matrix(2.1631 0 0 2.1631 -1396.4 -1426.3)" fill="#bcbcbc" data-name="Upload Nav">
<path d="m651.77 680.97a6.241 6.241 0 0 1 -1.633 -12.257v-0.318a8.767 8.767 0 0 1 7.519 -8.758 8.75 8.75 0 0 1 9.8 6.87 7.061 7.061 0 0 1 -1.242 14.008h-0.01a6.97 6.97 0 0 1 -2.367 -0.415 0.75 0.75 0 1 1 0.51 -1.41 5.062 5.062 0 0 0 1.864 0.325 5.56 5.56 0 0 0 0.527 -11.094 0.749 0.749 0 0 1 -0.669 -0.641 7.25 7.25 0 0 0 -14.427 1.106v0.929a0.75 0.75 0 0 1 -0.626 0.739 4.741 4.741 0 0 0 0.967 9.412 4.732 4.732 0 0 0 1.947 -0.414 0.7494 0.7494 0 0 1 0.619 1.365 6.181 6.181 0 0 1 -2.532 0.548h-8e-3c-0.082 3e-3 -0.16 5e-3 -0.239 5e-3z" data-name="Path 716"/>
<g data-name="Group 1324">
<path d="m659.95 673.22v12.07a0.9 0.9 0 0 1 -1.8 6e-3v-12.076a0.90001 0.90001 0 1 1 1.8 -7e-3z" data-name="Path 528"/>
<path d="m659.95 673.22c-2.1e-4 0.23812-0.0948 0.46646-0.263 0.635l-3.293 3.293c-0.79067 0.90333-2.1457-0.28267-1.355-1.186 0.0266-0.0297 0.055-0.0578 0.085-0.084l3.293-3.3592c0.5667-0.56072 1.5288-0.096 1.533 0.70118z" data-name="Path 529"/>
<path d="m663.25 676.51a0.9 0.9 0 0 1 -1.533 0.635l-3.294-3.293a0.90003 0.90003 0 0 1 1.185 -1.355 0.964 0.964 0 0 1 0.085 0.085l3.294 3.293a0.9 0.9 0 0 1 0.263 0.635z" data-name="Path 530"/>
</g>
</g>
</svg>
