<?xml version="1.0" encoding="UTF-8" standalone="no"?>
<svg
   xmlns:dc="http://purl.org/dc/elements/1.1/"
   xmlns:cc="http://creativecommons.org/ns#"
   xmlns:rdf="http://www.w3.org/1999/02/22-rdf-syntax-ns#"
   xmlns:svg="http://www.w3.org/2000/svg"
   xmlns="http://www.w3.org/2000/svg"
   xmlns:sodipodi="http://sodipodi.sourceforge.net/DTD/sodipodi-0.dtd"
   xmlns:inkscape="http://www.inkscape.org/namespaces/inkscape"
   width="16.2"
   height="18"
   viewBox="0 0 16.2 18"
   version="1.1"
   id="svg20"
   sodipodi:docname="edit.svg"
   inkscape:version="0.92.4 (5da689c313, 2019-01-14)">
  <metadata
     id="metadata24">
    <rdf:RDF>
      <cc:Work
         rdf:about="">
        <dc:format>image/svg+xml</dc:format>
        <dc:type
           rdf:resource="http://purl.org/dc/dcmitype/StillImage" />
      </cc:Work>
    </rdf:RDF>
  </metadata>
  <sodipodi:namedview
     pagecolor="#ffffff"
     bordercolor="#666666"
     borderopacity="1"
     objecttolerance="10"
     gridtolerance="10"
     guidetolerance="10"
     inkscape:pageopacity="0"
     inkscape:pageshadow="2"
     inkscape:window-width="2560"
     inkscape:window-height="1417"
     id="namedview22"
     showgrid="false"
     inkscape:zoom="52.444444"
     inkscape:cx="8.1000004"
     inkscape:cy="9"
     inkscape:window-x="-8"
     inkscape:window-y="-8"
     inkscape:window-maximized="1"
     inkscape:current-layer="svg20" />
  <defs
     id="defs4">
    <clipPath
       id="clip-path">
      <path
         id="Path_671"
         data-name="Path 671"
         d="M305.008,319.8h-10.2a3,3,0,0,1-3-3v-12a3,3,0,0,1,3-3h4.2v6.9a3,3,0,0,0,3,3h6v5.1a3,3,0,0,1-3,3Z"
         fill="none" />
    </clipPath>
  </defs>
  <g
     id="Edit"
     transform="translate(-291.808 -301.797)">
    <g
       id="Pen">
      <g
         id="Group_58"
         data-name="Group 58">
        <path
           transform="rotate(-45,525.43418,-202.09096)"
           style="fill:#3bb3cf"
           d="M 0,0 9.2740002,0 V 2.5910001 L 0,2.5910001 -2.561764,1.2959589 Z"
           id="Rectangle_33"
           inkscape:connector-curvature="0"
           sodipodi:nodetypes="cccccc" />
        <path
           id="Rectangle_34"
           data-name="Rectangle 34"
           d="M307.246,303.735h0a1.3,1.3,0,0,1,0,1.838h0l-.894.894h0l-1.838-1.838h0l.894-.894a1.3,1.3,0,0,1,1.838,0Z"
           fill="#3bb3cf" />
      </g>
    </g>
    <g
       id="Group_1549"
       data-name="Group 1549">
      <g
         id="Group_1548"
         data-name="Group 1548"
         clip-path="url(#clip-path)">
        <g
           id="Mask_Group_9"
           data-name="Mask Group 9">
          <g
             id="Group_386"
             data-name="Group 386">
            <g
               id="Group_385"
               data-name="Group 385">
              <g
                 id="Rectangle_31-8"
                 data-name="Rectangle 31-8">
                <rect
                   id="Rectangle_358"
                   data-name="Rectangle 358"
                   width="16.199"
                   height="18"
                   rx="3"
                   transform="translate(291.808 301.797)"
                   fill="none" />
                <path
                   id="Path_670"
                   data-name="Path 670"
                   d="M 308.007,311.73132 V 316.8 c 0,1.65685 -1.34315,3 -3,3 h -10.2 c -1.65685,0 -3,-1.34315 -3,-3 v -12 c 0,-1.65685 1.34315,-3 3,-3 h 4.11329 v 1.5 H 294.807 c -0.82843,0 -1.5,0.67157 -1.5,1.5 v 12 c 0,0.82843 0.67157,1.5 1.5,1.5 h 10.2 c 0.82843,0 1.5,-0.67157 1.5,-1.5 v -5.06868 z"
                   inkscape:connector-curvature="0"
                   style="fill:#3bb3cf"
                   sodipodi:nodetypes="cssssssccsssssscc" />
              </g>
            </g>
          </g>
        </g>
      </g>
    </g>
  </g>
</svg>
