<svg xmlns="http://www.w3.org/2000/svg" width="17.99" height="17.99" viewBox="0 0 17.99 17.99">
  <g id="Ellipse" transform="translate(309.671 -61.797)">
    <g id="Path_53" data-name="Path 53">
      <path id="Path_566" data-name="Path 566" d="M-300.676,79.037a8.254,8.254,0,0,1-8.245-8.245,8.253,8.253,0,0,1,8.245-8.245,8.254,8.254,0,0,1,8.245,8.245A8.255,8.255,0,0,1-300.676,79.037Z" fill="none"/>
      <path id="Path_567" data-name="Path 567" d="M-300.676,63.3a7.5,7.5,0,0,0-7.495,7.495,7.5,7.5,0,0,0,7.495,7.5,7.5,7.5,0,0,0,7.495-7.5,7.5,7.5,0,0,0-7.495-7.495m0-1.5a8.995,8.995,0,0,1,8.995,8.995,8.995,8.995,0,0,1-8.995,9,8.995,8.995,0,0,1-8.995-9A8.995,8.995,0,0,1-300.676,61.8Z" fill="#ffffff"/>
    </g>
    <g id="Group_19" data-name="Group 19">
      <g id="Group_1537" data-name="Group 1537">
        <circle id="Ellipse_6" data-name="Ellipse 6" cx="0.999" cy="0.999" r="0.999" transform="translate(-301.675 69.793)" fill="#ffffff"/>
        <path id="Path_568" data-name="Path 568" d="M-300.676,72.041a1.251,1.251,0,0,1-1.249-1.249,1.251,1.251,0,0,1,1.249-1.25,1.252,1.252,0,0,1,1.249,1.25A1.251,1.251,0,0,1-300.676,72.041Zm0-2a.75.75,0,0,0-.749.75.75.75,0,0,0,.749.749.75.75,0,0,0,.749-.749A.75.75,0,0,0-300.676,70.042Z" fill="#ffffff"/>
      </g>
      <g id="Group_1538" data-name="Group 1538">
        <circle id="Ellipse_7" data-name="Ellipse 7" cx="0.999" cy="0.999" r="0.999" transform="translate(-305.673 69.793)" fill="#ffffff"/>
        <path id="Path_569" data-name="Path 569" d="M-304.674,72.041a1.251,1.251,0,0,1-1.249-1.249,1.251,1.251,0,0,1,1.249-1.25,1.252,1.252,0,0,1,1.249,1.25A1.251,1.251,0,0,1-304.674,72.041Zm0-2a.75.75,0,0,0-.749.75.75.75,0,0,0,.749.749.75.75,0,0,0,.749-.749A.75.75,0,0,0-304.674,70.042Z" fill="#ffffff"/>
      </g>
      <g id="Group_1539" data-name="Group 1539">
        <circle id="Ellipse_8" data-name="Ellipse 8" cx="0.999" cy="0.999" r="0.999" transform="translate(-297.677 69.793)" fill="#ffffff"/>
        <path id="Path_570" data-name="Path 570" d="M-296.678,72.041a1.251,1.251,0,0,1-1.249-1.249,1.251,1.251,0,0,1,1.249-1.25,1.252,1.252,0,0,1,1.249,1.25A1.251,1.251,0,0,1-296.678,72.041Zm0-2a.75.75,0,0,0-.749.75.75.75,0,0,0,.749.749.75.75,0,0,0,.749-.749A.75.75,0,0,0-296.678,70.042Z" fill="#ffffff"/>
      </g>
    </g>
  </g>
</svg>
