<svg xmlns="http://www.w3.org/2000/svg" width="18" height="14" viewBox="0 0 18 14">
  <g id="Email" transform="translate(-650.808 -63.844)">
    <g id="Group_135" data-name="Group 135">
      <g id="Rectangle_31-3" data-name="Rectangle 31-3">
    
        <path id="Path_592" data-name="Path 592" d="M665.808,77.844h-12a3,3,0,0,1-3-3v-8a3,3,0,0,1,3-3h12a3,3,0,0,1,3,3v8A3,3,0,0,1,665.808,77.844Zm-12-12.5a1.5,1.5,0,0,0-1.5,1.5v8a1.5,1.5,0,0,0,1.5,1.5h12a1.5,1.5,0,0,0,1.5-1.5v-8a1.5,1.5,0,0,0-1.5-1.5Z" fill="#56bcd2"/>
      </g>
    </g>
    <g id="Subtraction_2" data-name="Subtraction 2">

      <path id="Path_594" data-name="Path 594" d="M659.808,71.444a.131.131,0,0,0,.055-.01l6.669-5.53-.748-.62H653.833l-.748.62,6.668,5.53a.141.141,0,0,0,.055.01m0,1a1.078,1.078,0,0,1-.69-.238l-6.909-5.729a.719.719,0,0,1,0-1.146l1.264-1.047h12.671l1.264,1.047a.719.719,0,0,1,0,1.146L660.5,72.206A1.08,1.08,0,0,1,659.808,72.444Z" fill="#56bcd2"/>
    </g>
  </g>
</svg>
