<svg xmlns="http://www.w3.org/2000/svg" width="18" height="14" viewBox="0 0 18 14">
  <g id="Email-2" transform="translate(-50.808 -765.844)">
    <g id="Group_135-2" data-name="Group 135-2">
      <g id="Rectangle_31-9" data-name="Rectangle 31-9">
        <rect id="Rectangle_364" data-name="Rectangle 364" width="18" height="14" rx="3" transform="translate(50.808 765.844)" fill="#fff"/>
        <path id="Path_722" data-name="Path 722" d="M65.808,779.844h-12a3,3,0,0,1-3-3v-8a3,3,0,0,1,3-3h12a3,3,0,0,1,3,3v8A3,3,0,0,1,65.808,779.844Zm-12-12.5a1.5,1.5,0,0,0-1.5,1.5v8a1.5,1.5,0,0,0,1.5,1.5h12a1.5,1.5,0,0,0,1.5-1.5v-8a1.5,1.5,0,0,0-1.5-1.5Z" fill="#919191"/>
      </g>
    </g>
    <g id="Subtraction_2-2" data-name="Subtraction 2-2">
      <path id="Path_723" data-name="Path 723" d="M59.809,774.444a1.081,1.081,0,0,1-.691-.237l-6.909-5.73a.716.716,0,0,1,0-1.146l1.264-1.047H66.145l1.264,1.048a.72.72,0,0,1,0,1.146l-6.91,5.729A1.088,1.088,0,0,1,59.809,774.444Z" fill="none"/>
      <path id="Path_724" data-name="Path 724" d="M59.808,773.444a.132.132,0,0,0,.055-.01l6.669-5.53-.748-.62H53.833l-.748.62,6.668,5.53a.141.141,0,0,0,.055.01m0,1a1.077,1.077,0,0,1-.69-.238l-6.909-5.729a.719.719,0,0,1,0-1.146l1.264-1.047H66.144l1.264,1.047a.719.719,0,0,1,0,1.146L60.5,774.206A1.08,1.08,0,0,1,59.808,774.444Z" fill="#919191"/>
    </g>
  </g>
</svg>
