<svg xmlns="http://www.w3.org/2000/svg" width="14.995" height="14.389" viewBox="0 0 14.995 14.389">
  <path id="Favourite_True" data-name="Favourite True" d="M421.534,764.058l1.259,2.551a1.367,1.367,0,0,0,1.029.748l2.816.409a1.366,1.366,0,0,1,.757,2.33l-2.035,1.986a1.364,1.364,0,0,0-.393,1.209l.481,2.8a1.366,1.366,0,0,1-1.982,1.44l-2.518-1.324a1.363,1.363,0,0,0-1.272,0l-2.518,1.324a1.366,1.366,0,0,1-1.982-1.44l.481-2.8a1.364,1.364,0,0,0-.393-1.209l-2.038-1.986a1.366,1.366,0,0,1,.757-2.33l2.816-.409a1.369,1.369,0,0,0,1.029-.748l1.259-2.551a1.366,1.366,0,0,1,2.447,0Z" transform="translate(-412.813 -763.299)" fill="#F6B12F"/>
</svg>
