<?xml version="1.0" encoding="UTF-8" standalone="no"?>
<svg
   xmlns:dc="http://purl.org/dc/elements/1.1/"
   xmlns:cc="http://creativecommons.org/ns#"
   xmlns:rdf="http://www.w3.org/1999/02/22-rdf-syntax-ns#"
   xmlns:svg="http://www.w3.org/2000/svg"
   xmlns="http://www.w3.org/2000/svg"
   xmlns:sodipodi="http://sodipodi.sourceforge.net/DTD/sodipodi-0.dtd"
   xmlns:inkscape="http://www.inkscape.org/namespaces/inkscape"
   width="18.338"
   height="19.001"
   viewBox="0 0 18.338 19.001"
   version="1.1"
   id="svg15"
   sodipodi:docname="filters.svg"
   inkscape:version="0.92.4 (5da689c313, 2019-01-14)">
  <metadata
     id="metadata21">
    <rdf:RDF>
      <cc:Work
         rdf:about="">
        <dc:format>image/svg+xml</dc:format>
        <dc:type
           rdf:resource="http://purl.org/dc/dcmitype/StillImage" />
      </cc:Work>
    </rdf:RDF>
  </metadata>
  <defs
     id="defs19" />
  <sodipodi:namedview
     pagecolor="#ffffff"
     bordercolor="#666666"
     borderopacity="1"
     objecttolerance="10"
     gridtolerance="10"
     guidetolerance="10"
     inkscape:pageopacity="0"
     inkscape:pageshadow="2"
     inkscape:window-width="2560"
     inkscape:window-height="1417"
     id="namedview17"
     showgrid="false"
     inkscape:zoom="49.681597"
     inkscape:cx="9.1689997"
     inkscape:cy="9.5004997"
     inkscape:window-x="-8"
     inkscape:window-y="-8"
     inkscape:window-maximized="1"
     inkscape:current-layer="svg15" />
  <g
     id="Filters"
     transform="translate(-51.058 -61.796)">
    <path
       id="Path_576"
       data-name="Path 576"
       d="M 64.80939,63.546 H 68.646 c 1,0 1,1.5 0,1.5 h -3.896994 z m -3.89739,1.499999 -9.104,1e-6 c -1,0 -1,-1.5 0,-1.5 l 9.104,-10e-7 z"
       inkscape:connector-curvature="0"
       style="fill:#3bb3cf"
       sodipodi:nodetypes="csscccsscc" />
    <path
       id="Path_577"
       data-name="Path 577"
       d="M 64.604263,77.546 H 68.646 c 1,0 1,1.5 0,1.5 h -4.021608 z m -3.824353,1.5 H 51.808 c -1,0 -1,-1.5 0,-1.5 h 8.951782 z"
       inkscape:connector-curvature="0"
       style="fill:#3bb3cf"
       sodipodi:nodetypes="csscccsscc" />
    <path
       id="Path_578"
       data-name="Path 578"
       d="m 58.002221,70.546 c 3.547926,0 7.095853,0 10.643779,0 1,0 1,1.5 0,1.5 -3.534507,0 -7.069015,0 -10.603522,0 z m -3.824354,1.5 H 51.808 c -1,0 -1,-1.5 0,-1.5 h 2.470508 z"
       inkscape:connector-curvature="0"
       style="fill:#3bb3cf"
       sodipodi:nodetypes="ccccccsscc" />
    <g
       id="Ellipse_60"
       data-name="Ellipse 60">
      <path
         id="Path_579"
         data-name="Path 579"
         d="M62.738,66.8a2.5,2.5,0,1,1,2.5-2.5A2.5,2.5,0,0,1,62.738,66.8Zm0-4a1.5,1.5,0,1,0,1.5,1.5A1.5,1.5,0,0,0,62.738,62.8Z"
         fill="#3bb3cf" />
    </g>
    <g
       id="Ellipse_61"
       data-name="Ellipse 61">
      <path
         id="Path_580"
         data-name="Path 580"
         d="M56.141,73.8a2.5,2.5,0,1,1,2.5-2.5A2.5,2.5,0,0,1,56.141,73.8Zm0-4a1.5,1.5,0,1,0,1.5,1.5A1.5,1.5,0,0,0,56.141,69.8Z"
         fill="#3bb3cf" />
    </g>
    <g
       id="Ellipse_62"
       data-name="Ellipse 62">
      <path
         id="Path_581"
         data-name="Path 581"
         d="M62.738,80.8a2.5,2.5,0,1,1,2.5-2.5A2.5,2.5,0,0,1,62.738,80.8Zm0-4a1.5,1.5,0,1,0,1.5,1.5A1.5,1.5,0,0,0,62.738,76.8Z"
         fill="#3bb3cf" />
    </g>
  </g>
</svg>
