<svg xmlns="http://www.w3.org/2000/svg" width="18.5" height="15.741" viewBox="0 0 18.5 15.741">
  <path id="Path_648" data-name="Path 648" d="M665.306,198.787H652.328a2.776,2.776,0,0,1-2.77-2.77v-10.2a2.777,2.777,0,0,1,2.769-2.77h5.68l2.011,2h5.27a2.776,2.776,0,0,1,2.77,2.77v8.2a2.762,2.762,0,0,1-2.751,2.77Zm-12.978-14.241a1.275,1.275,0,0,0-1.27,1.271v10.2a1.274,1.274,0,0,0,1.27,1.27H665.3a1.263,1.263,0,0,0,1.254-1.267v-8.2a1.273,1.273,0,0,0-1.271-1.27H659.4l-2.01-2Z" transform="translate(-649.558 -183.046)" fill="#3bb3cf"/>
</svg>
