<svg xmlns="http://www.w3.org/2000/svg" width="25" height="25.001" viewBox="0 0 25 25.001">
  <g id="Help_Nav" data-name="Help Nav" transform="translate(-46.808 -419.796)">
    <path id="Path_634" data-name="Path 634" d="M58.808,444.3a12.5,12.5,0,1,1,12.5-12.5A12.514,12.514,0,0,1,58.808,444.3Zm0-23.5a11,11,0,1,0,11,11A11.013,11.013,0,0,0,58.808,420.8Z" transform="translate(0.5 0.5)" fill="#0d2762"/>
    <path id="Path_789" data-name="Path 789" d="M175.964,421.029A7.254,7.254,0,0,1,177.1,419.8a6.292,6.292,0,0,0,.852-.884,1.389,1.389,0,0,0,.279-.852,1.3,1.3,0,0,0-.541-1.083,2.325,2.325,0,0,0-1.449-.414,2.983,2.983,0,0,0-2.6,1.226l-1.544-1a4.474,4.474,0,0,1,1.767-1.441,6.01,6.01,0,0,1,2.547-.5,4.722,4.722,0,0,1,2.842.772,2.487,2.487,0,0,1,1.059,2.125,2.85,2.85,0,0,1-.215,1.146,3.149,3.149,0,0,1-.517.836,10.208,10.208,0,0,1-.8.788,6.141,6.141,0,0,0-.9.955,1.658,1.658,0,0,0-.295.987h-2.022A2.452,2.452,0,0,1,175.964,421.029Zm-.287,4.872a1.2,1.2,0,0,1-.358-.884,1.174,1.174,0,0,1,.358-.876,1.255,1.255,0,0,1,.915-.35,1.235,1.235,0,0,1,.9.35,1.174,1.174,0,0,1,.358.876,1.2,1.2,0,0,1-.358.884,1.22,1.22,0,0,1-.9.358A1.24,1.24,0,0,1,175.677,425.9Z" transform="translate(-117.295 11.652)" fill="#0d2762"/>
  </g>
</svg>
