<svg xmlns="http://www.w3.org/2000/svg" width="28.996" height="28.996" viewBox="0 0 28.996 28.996">
  <g id="Large_Add_with_Circle_Active" data-name="Large Add with Circle Active" transform="translate(-406.809 -537.796)">
    <g id="Path_53-6" data-name="Path 53-6">
 
      <path id="Path_705" data-name="Path 705" d="M408.309,552.294a13,13,0,1,0,3.807-9.191,12.914,12.914,0,0,0-3.807,9.191m-1.5,0a14.5,14.5,0,1,1,14.5,14.5A14.5,14.5,0,0,1,406.809,552.294Z" fill="#eb3c16"/>
    </g>
    <g id="Group_250-4" data-name="Group 250-4">
      <path id="Path_706" data-name="Path 706" d="M421.14,558.208a.75.75,0,0,1-.75-.75V546.8a.75.75,0,0,1,1.5,0v10.662A.75.75,0,0,1,421.14,558.208Z" fill="#eb3c16"/>
      <path id="Path_707" data-name="Path 707" d="M426.471,552.877H415.809a.75.75,0,0,1,0-1.5h10.662a.75.75,0,0,1,0,1.5Z" fill="#eb3c16"/>
    </g>
  </g>
</svg>
