<?xml version="1.0" encoding="UTF-8" standalone="no"?>
<svg
   xmlns:dc="http://purl.org/dc/elements/1.1/"
   xmlns:cc="http://creativecommons.org/ns#"
   xmlns:rdf="http://www.w3.org/1999/02/22-rdf-syntax-ns#"
   xmlns:svg="http://www.w3.org/2000/svg"
   xmlns="http://www.w3.org/2000/svg"
   xmlns:sodipodi="http://sodipodi.sourceforge.net/DTD/sodipodi-0.dtd"
   xmlns:inkscape="http://www.inkscape.org/namespaces/inkscape"
   width="29"
   height="29"
   viewBox="0 0 29 29"
   version="1.1"
   id="svg7"
   sodipodi:docname="large-add-circle-inactive.svg"
   inkscape:version="0.92.4 (5da689c313, 2019-01-14)">
  <metadata
     id="metadata13">
    <rdf:RDF>
      <cc:Work
         rdf:about="">
        <dc:format>image/svg+xml</dc:format>
        <dc:type
           rdf:resource="http://purl.org/dc/dcmitype/StillImage" />
      </cc:Work>
    </rdf:RDF>
  </metadata>
  <defs
     id="defs11" />
  <sodipodi:namedview
     pagecolor="#ffffff"
     bordercolor="#666666"
     borderopacity="1"
     objecttolerance="10"
     gridtolerance="10"
     guidetolerance="10"
     inkscape:pageopacity="0"
     inkscape:pageshadow="2"
     inkscape:window-width="2560"
     inkscape:window-height="1417"
     id="namedview9"
     showgrid="false"
     inkscape:zoom="46.03509"
     inkscape:cx="14.5"
     inkscape:cy="14.5"
     inkscape:window-x="-8"
     inkscape:window-y="-8"
     inkscape:window-maximized="1"
     inkscape:current-layer="svg7" />
  <g
     id="Large_Add_with_Circle_Inactive"
     data-name="Large Add with Circle Inactive"
     transform="translate(-527.809 -537.792)">
    <g
       id="Group_250-5"
       data-name="Group 250-5">
      <path
         id="Path_708"
         transform="translate(527.809,537.792)"
         style="fill:#000031;fill-opacity:1"
         d="m 14.353516,8.2578125 a 0.75,0.75 0 0 0 -0.773438,0.75 V 13.585938 H 9 a 0.75,0.75 0 0 0 0,1.5 h 4.580078 v 4.580078 a 0.75,0.75 0 0 0 0.75,0.75 0.75,0.75 0 0 0 0.75,-0.746094 v -4.583984 h 4.582031 a 0.75,0.75 0 0 0 0,-1.5 H 15.080078 V 9.0078125 a 0.75,0.75 0 0 0 -0.726562,-0.75 z M 0,14.5 A 14.5,14.5 0 1 1 14.5,29 14.5,14.5 0 0 1 0,14.5 Z" />
    </g>
  </g>
</svg>
