<svg xmlns="http://www.w3.org/2000/svg" width="17.991" height="18" viewBox="0 0 17.991 18">
  <g id="Left_Arrow_with_Circle" data-name="Left Arrow with Circle" transform="translate(428.641 -61.797)">
    <g id="Group_99-2" data-name="Group 99-2">
      <g id="Path_54-2" data-name="Path 54-2">
     
        <path id="Path_564" data-name="Path 564" d="M-412.15,70.8a7.506,7.506,0,0,0-7.495-7.5,7.506,7.506,0,0,0-7.5,7.5,7.507,7.507,0,0,0,7.5,7.5,7.507,7.507,0,0,0,7.495-7.5m1.5,0a9,9,0,0,1-8.995,9,9,9,0,0,1-9-9,9,9,0,0,1,9-9A9,9,0,0,1-410.65,70.8Z" fill="#3bb3cf"/>
      </g>
      <g id="Group_1536" data-name="Group 1536">
    
        <path id="Path_565" data-name="Path 565" d="M-418.294,76.3A.993.993,0,0,1-419,76l-4.5-4.5a.993.993,0,0,1-.293-.707,1,1,0,0,1,.293-.707l4.5-4.5a1,1,0,0,1,1.414,0,1,1,0,0,1,.293.707,1,1,0,0,1-.293.707L-421.38,70.8l3.793,3.793a1,1,0,0,1,.293.707,1,1,0,0,1-.293.707A1,1,0,0,1-418.294,76.3Z" fill="#3bb3cf"/>
      </g>
    </g>
  </g>
</svg>
