<svg xmlns="http://www.w3.org/2000/svg" width="13.8" height="13.688" viewBox="0 0 13.8 13.688">
  <g id="Links" transform="translate(-533.148 -184.308)">
    <g id="Path_398" data-name="Path 398">
      <path id="Path_643" data-name="Path 643" d="M534.343,197.117l-.307-.308a2.981,2.981,0,0,1-.024-4.218l.024-.024,1.13-1.122a3.042,3.042,0,0,1,4.274,0l.308.308a2.983,2.983,0,0,1,.024,4.218l-.024.024-1.132,1.122A3.042,3.042,0,0,1,534.343,197.117Z" fill="none"/>
      <path id="Path_644" data-name="Path 644" d="M535.086,195.741l0,.005.309.306a1.542,1.542,0,0,0,2.165,0l1.132-1.122a1.484,1.484,0,0,0,.005-2.108l-.005-.005-.309-.306a1.542,1.542,0,0,0-2.165,0l-1.132,1.122a1.482,1.482,0,0,0,0,2.108m-1.061,1.061a2.983,2.983,0,0,1,.009-4.234l1.132-1.122a3.041,3.041,0,0,1,4.277,0l.309.306.009.009a2.982,2.982,0,0,1-.009,4.234l-1.131,1.122a3.042,3.042,0,0,1-4.278,0l-.309-.306Z" fill="#3bb3cf"/>
    </g>
    <g id="Path_399" data-name="Path 399">
      <path id="Path_645" data-name="Path 645" d="M540.654,190.858l-.308-.308a2.982,2.982,0,0,1-.024-4.218l.024-.024,1.13-1.122a3.041,3.041,0,0,1,4.274,0l.308.307a2.983,2.983,0,0,1,.024,4.219l-.024.024-1.132,1.122A3.042,3.042,0,0,1,540.654,190.858Z" fill="none"/>
      <path id="Path_646" data-name="Path 646" d="M541.4,189.482l.005,0,.308.307a1.543,1.543,0,0,0,2.166,0l1.131-1.123a1.484,1.484,0,0,0,.005-2.108l-.005,0-.309-.306a1.541,1.541,0,0,0-2.165,0l-1.131,1.122a1.481,1.481,0,0,0-.005,2.108m-1.061,1.061a2.983,2.983,0,0,1,.009-4.234l1.132-1.122a3.042,3.042,0,0,1,4.278,0l.308.306.009.009a2.98,2.98,0,0,1-.009,4.233l-1.131,1.123a3.044,3.044,0,0,1-4.278,0l-.309-.307Z" fill="#3bb3cf"/>
    </g>
    <path id="Path_647" data-name="Path 647" d="M538.471,193.717a1,1,0,0,1-.7-1.71l3.155-3.13a1,1,0,0,1,1.408,1.42l-3.155,3.13A1,1,0,0,1,538.471,193.717Z" fill="#3bb3cf"/>
  </g>
</svg>
