<svg xmlns="http://www.w3.org/2000/svg" width="17.137" height="17.139" viewBox="0 0 17.137 17.139">
  <g id="Linkedin" transform="translate(-531.808 -762.925)">
    <g id="iconfinder_18_Media_social_website_in_2657551" data-name="iconfinder 18 Media social website in 2657551">
      <path id="Path_417" data-name="Path 417" d="M531.811,771.673v8.391h4V768.635h-4Zm17.044.473c-.263-2.166-1.251-3.512-4.175-3.512-1.714,0-2.871.631-3.354,1.546h-.053v-1.546h-3.186v11.429h3.333V774.4c0-1.494.294-2.934,2.125-2.934s1.976,1.7,1.976,3.038v5.562h3.424v-6.277a13.4,13.4,0,0,0-.094-1.64Zm-15.047-9.221a2,2,0,1,0,2,2,2,2,0,0,0-2-2Z" fill="#3bb3cf" fill-rule="evenodd"/>
    </g>
  </g>
</svg>
