<svg xmlns="http://www.w3.org/2000/svg" width="15" height="18" viewBox="0 0 15 18">
  <g id="Lock-2" transform="translate(-873.808 -660.797)">
    <g id="Rectangle_12-2" data-name="Rectangle 12-2">
      <path id="Path_741" data-name="Path 741" d="M879.808,660.8h3a3,3,0,0,1,3,3v3h-9v-3A3,3,0,0,1,879.808,660.8Z" fill="none"/>
      <path id="Path_742" data-name="Path 742" d="M884.308,666.8h-6a1.5,1.5,0,0,1-1.5-1.5v-1.5a3,3,0,0,1,3-3h3a3,3,0,0,1,3,3v1.5A1.5,1.5,0,0,1,884.308,666.8Zm-4.5-4.5a1.5,1.5,0,0,0-1.5,1.5v1.5h6v-1.5a1.5,1.5,0,0,0-1.5-1.5Z" fill="#919191"/>
    </g>
    <g id="Rectangle_11-2" data-name="Rectangle 11-2">
      <rect id="Rectangle_376" data-name="Rectangle 376" width="15" height="13" rx="3" transform="translate(873.808 665.797)" fill="none"/>
      <path id="Path_743" data-name="Path 743" d="M885.808,678.8h-9a3,3,0,0,1-3-3v-7a3,3,0,0,1,3-3h9a3,3,0,0,1,3,3v7A3,3,0,0,1,885.808,678.8Zm-9-11.5a1.5,1.5,0,0,0-1.5,1.5v7a1.5,1.5,0,0,0,1.5,1.5h9a1.5,1.5,0,0,0,1.5-1.5v-7a1.5,1.5,0,0,0-1.5-1.5Z" fill="#919191"/>
    </g>
    <circle id="Ellipse_4-2" data-name="Ellipse 4-2" cx="1.5" cy="1.5" r="1.5" transform="translate(879.808 670.797)" fill="#919191"/>
  </g>
</svg>
