<svg xmlns="http://www.w3.org/2000/svg" width="15" height="18.001" viewBox="0 0 15 18.001">
  <g id="Lock" transform="translate(67.192 -301.796)">
    <g id="Rectangle_12" data-name="Rectangle 12">
      <path id="Path_663" data-name="Path 663" d="M-61.192,301.8h3a3,3,0,0,1,3,3v3h-9v-3A3,3,0,0,1-61.192,301.8Z" fill="none"/>
      <path id="Path_664" data-name="Path 664" d="M-56.692,307.8h-6a1.5,1.5,0,0,1-1.5-1.5v-1.5a3,3,0,0,1,3-3h3a3,3,0,0,1,3,3v1.5A1.5,1.5,0,0,1-56.692,307.8Zm-4.5-4.5a1.5,1.5,0,0,0-1.5,1.5v1.5h6v-1.5a1.5,1.5,0,0,0-1.5-1.5Z" fill="#3bb3cf"/>
    </g>
    <g id="Rectangle_11" data-name="Rectangle 11">
      <rect id="Rectangle_357" data-name="Rectangle 357" width="15" height="13" rx="3" transform="translate(-67.192 306.797)" fill="none"/>
      <path id="Path_665" data-name="Path 665" d="M-55.192,319.8h-9a3,3,0,0,1-3-3v-7a3,3,0,0,1,3-3h9a3,3,0,0,1,3,3v7A3,3,0,0,1-55.192,319.8Zm-9-11.5a1.5,1.5,0,0,0-1.5,1.5v7a1.5,1.5,0,0,0,1.5,1.5h9a1.5,1.5,0,0,0,1.5-1.5v-7a1.5,1.5,0,0,0-1.5-1.5Z" fill="#3bb3cf"/>
    </g>
    <circle id="Ellipse_4" data-name="Ellipse 4" cx="1.5" cy="1.5" r="1.5" transform="translate(-61.192 311.797)" fill="#3bb3cf"/>
  </g>
</svg>
