<?xml version="1.0" encoding="UTF-8"?>
<svg version="1.1" viewBox="0 0 17.003 17.225" xmlns="http://www.w3.org/2000/svg">
<g transform="translate(375.33 -1182.4) rotate(90)" data-name="Logout Desktop">
<path d="m1185 363.8 0.066 2e-3c-1.2907-0.11566-2.4537 0.83502-2.5957 2.123a0.75008 0.75008 0 0 0-0 0.084v7.1133a0.75008 0.75008 0 0 0 0 0.084c0.142 1.288 1.305 2.2387 2.5957 2.123l-0.066 2e-3h12.158l-0.066-2e-3c1.2906 0.11564 2.4524-0.83696 2.5937-2.125a0.75008 0.75008 0 0 0 0.01-0.082v-7.1133a0.75008 0.75008 0 0 0-0.01-0.082c-0.1413-1.288-1.3031-2.2406-2.5937-2.125l0.066-2e-3h-1.3418a0.75008 0.75008 0 1 0 0 1.5h1.3418a0.75008 0.75008 0 0 0 0.066-4e-3c0.4905-0.0439 0.9084 0.2975 0.9668 0.78516v6.9688c-0.058 0.48766-0.4763 0.82911-0.9668 0.78516a0.75008 0.75008 0 0 0-0.066-4e-3h-12.158a0.75008 0.75008 0 0 0-0.068 4e-3c-0.4909 0.044-0.9061-0.29913-0.9648-0.78711v-6.9648c0.059-0.48798 0.4739-0.8311 0.9648-0.78711a0.75008 0.75008 0 0 0 0.068 4e-3h1.3535a0.75008 0.75008 0 1 0 0-1.5z" fill="#4fbfd7"/>
<g transform="translate(1188 359.08)" data-name="Group 1190">
<g transform="translate(0)" data-name="Group 1188">
<path d="m2.5463-0.53108-3.0762 3.0781c-0.76654 0.75288 0.18791 1.8268 1.0606 1.0605l2.5468-2.5469 2.5469 2.5469c0.80257 0.79675 1.8088-0.31258 1.0606-1.0605l-3.0782-3.0781c-0.29913-0.27466-0.79036-0.29352-1.0605 0z" fill="#4fbfd7"/>
</g>
<path d="m3.0653-0.17977a0.75008 0.75008 0 0 0-0.73828 0.75977v10.018a0.75008 0.75008 0 1 0 1.5 0v-10.018a0.75008 0.75008 0 0 0-0.76172-0.75977z" fill="#4fbfd7"/>
</g>
</g>
</svg>
