<svg xmlns="http://www.w3.org/2000/svg" width="18" height="20.481" viewBox="0 0 18 20.481">
  <g id="Metadata" transform="translate(69.192 -60.814)">
    <g id="Rectangle_31" data-name="Rectangle 31">
      <rect id="Rectangle_296" data-name="Rectangle 296" width="18" height="20.48" rx="3" transform="translate(-69.192 60.815)" fill="none"/>
      <path id="Path_572" data-name="Path 572" d="M-54.192,81.294h-12a3,3,0,0,1-3-3V63.814a3,3,0,0,1,3-3h12a3,3,0,0,1,3,3v14.48A3,3,0,0,1-54.192,81.294Zm-12-18.98a1.5,1.5,0,0,0-1.5,1.5v14.48a1.5,1.5,0,0,0,1.5,1.5h12a1.5,1.5,0,0,0,1.5-1.5V63.814a1.5,1.5,0,0,0-1.5-1.5Z" fill="#FF5200"/>
    </g>
    <g id="Group_345" data-name="Group 345">
      <path id="Path_573" data-name="Path 573" d="M-63.424,73.4a.6.6,0,0,1-.409-.16l-2.138-1.987-.022-.021h0a.6.6,0,0,1-.116-.165.588.588,0,0,1-.058-.252h0v-.006a.6.6,0,0,1,.061-.264.589.589,0,0,1,.112-.159l.023-.021,2.138-1.987a.6.6,0,0,1,.848.031.6.6,0,0,1,.161.409.6.6,0,0,1-.192.439l-1.67,1.552,1.67,1.552a.6.6,0,0,1,.192.439.6.6,0,0,1-.161.409A.6.6,0,0,1-63.424,73.4Z" fill="#FF5200"/>
      <path id="Path_574" data-name="Path 574" d="M-56.96,73.4a.6.6,0,0,1-.44-.191.6.6,0,0,1-.161-.409.6.6,0,0,1,.192-.439l1.67-1.551-1.67-1.553a.6.6,0,0,1-.192-.439.6.6,0,0,1,.161-.409.6.6,0,0,1,.848-.031l2.138,1.988.021.02a.612.612,0,0,1,.115.16.6.6,0,0,1,.061.264v0h0v0h0a.631.631,0,0,1-.058.251.616.616,0,0,1-.119.167l-.02.018-2.138,1.987A.6.6,0,0,1-56.96,73.4Z" fill="#FF5200"/>
      <path id="Path_575" data-name="Path 575" d="M-61.534,73.5a.59.59,0,0,1-.283-.072.6.6,0,0,1-.245-.813l2.152-4a.6.6,0,0,1,.813-.244.6.6,0,0,1,.244.813l-2.152,4A.6.6,0,0,1-61.534,73.5Z" fill="#FF5200"/>
    </g>
  </g>
</svg>
