<svg xmlns="http://www.w3.org/2000/svg" width="18.439" height="18.439" viewBox="0 0 18.439 18.439">
  <g id="Help" transform="translate(189.192 -302.796)">
    <path id="Path_662" data-name="Path 662" d="M-180.387,304.3a7.728,7.728,0,0,0-7.719,7.719,7.728,7.728,0,0,0,7.719,7.72,7.728,7.728,0,0,0,7.72-7.72,7.728,7.728,0,0,0-7.72-7.719m0-1.5a9.219,9.219,0,0,1,9.22,9.219,9.22,9.22,0,0,1-9.22,9.22,9.219,9.219,0,0,1-9.219-9.22A9.218,9.218,0,0,1-180.387,302.8Z" transform="translate(0.414 -0.001)" fill="#c8c8c8"/>
    <path id="Path_790" data-name="Path 790" d="M174.9,419.317a5.247,5.247,0,0,1,.823-.892,4.552,4.552,0,0,0,.616-.639,1,1,0,0,0,.2-.616.94.94,0,0,0-.391-.783,1.682,1.682,0,0,0-1.048-.3,2.158,2.158,0,0,0-1.877.887l-1.117-.725a3.236,3.236,0,0,1,1.278-1.042,4.347,4.347,0,0,1,1.842-.363,3.415,3.415,0,0,1,2.055.558,1.8,1.8,0,0,1,.766,1.537,2.061,2.061,0,0,1-.155.829,2.277,2.277,0,0,1-.374.6,7.38,7.38,0,0,1-.576.57,4.441,4.441,0,0,0-.651.691,1.2,1.2,0,0,0-.213.714h-1.462A1.773,1.773,0,0,1,174.9,419.317Zm-.207,3.523a.868.868,0,0,1-.259-.639.849.849,0,0,1,.259-.633.907.907,0,0,1,.662-.253.893.893,0,0,1,.651.253.849.849,0,0,1,.259.633.868.868,0,0,1-.259.639.882.882,0,0,1-.651.259A.9.9,0,0,1,174.688,422.84Z" transform="translate(-355.296 -107.048)" fill="#c8c8c8"/>
  </g>
</svg>
