<svg xmlns="http://www.w3.org/2000/svg" width="25" height="28.75" viewBox="0 0 25 28.75">
  <g id="My_Documents_Nav" data-name="My Documents Nav" transform="translate(-165.808 -416.797)">
    <g id="Path_37" data-name="Path 37">
      <path id="Path_635" data-name="Path 635" d="M168.808,416.8h19a3,3,0,0,1,3,3v22.75a3,3,0,0,1-3,3h-19a3,3,0,0,1-3-3V419.8A3,3,0,0,1,168.808,416.8Z" fill="none"/>
      <path id="Path_636" data-name="Path 636" d="M168.808,418.3a1.5,1.5,0,0,0-1.5,1.5v22.75a1.5,1.5,0,0,0,1.5,1.5h19a1.5,1.5,0,0,0,1.5-1.5V419.8a1.5,1.5,0,0,0-1.5-1.5h-19m0-1.5h19a3,3,0,0,1,3,3v22.75a3,3,0,0,1-3,3h-19a3,3,0,0,1-3-3V419.8A3,3,0,0,1,168.808,416.8Z" fill="#0d2762"/>
    </g>
    <rect id="Rectangle_331" data-name="Rectangle 331" width="13.75" height="1" transform="translate(171.433 423.172)" fill="#0d2762"/>
    <rect id="Rectangle_332" data-name="Rectangle 332" width="13.75" height="1" transform="translate(171.433 426.922)" fill="#0d2762"/>
    <rect id="Rectangle_333" data-name="Rectangle 333" width="13.75" height="1" transform="translate(171.433 430.672)" fill="#0d2762"/>
    <rect id="Rectangle_334" data-name="Rectangle 334" width="13.75" height="1" transform="translate(171.433 434.422)" fill="#0d2762"/>
  </g>
</svg>
