<svg xmlns="http://www.w3.org/2000/svg" width="24.038" height="28.846" viewBox="0 0 24.038 28.846">
  <g id="Notification_Null_Nav" data-name="Notification Null Nav" transform="translate(432.192 -416.604)">
    <g id="ICON_BELL" data-name="ICON BELL">
      <g id="BELL">
        <path id="Path_626" data-name="Path 626" d="M-420.173,444.7a3.57,3.57,0,0,1-3.555-3.178l-.074-.667h-4.545a3.1,3.1,0,0,1-3.1-3.1,3.107,3.107,0,0,1,1.548-2.682l.374-.217v-6.332a9.144,9.144,0,0,1,2.031-5.783,9.288,9.288,0,0,1,5.093-3.222l.528-.124.048-.54a1.643,1.643,0,0,1,1.647-1.5,1.664,1.664,0,0,1,1.647,1.5l.047.54.528.124a9.287,9.287,0,0,1,5.094,3.222,9.149,9.149,0,0,1,2.03,5.783v6.332l.375.217a3.107,3.107,0,0,1,1.548,2.682,3.1,3.1,0,0,1-3.1,3.1h-4.545l-.073.667A3.57,3.57,0,0,1-420.173,444.7Z" fill="#fff"/>
        <path id="Path_627" data-name="Path 627" d="M-420.173,443.95a2.82,2.82,0,0,0,2.809-2.51l.148-1.335H-412a2.349,2.349,0,0,0,2.346-2.347,2.357,2.357,0,0,0-1.174-2.033l-.749-.434v-6.764a8.407,8.407,0,0,0-1.865-5.314,8.54,8.54,0,0,0-4.681-2.961l-1.055-.248-.1-1.079a.908.908,0,0,0-.9-.821.908.908,0,0,0-.9.821l-.1,1.079-1.055.248a8.541,8.541,0,0,0-4.68,2.961,8.4,8.4,0,0,0-1.866,5.314v6.764l-.748.434a2.357,2.357,0,0,0-1.174,2.033,2.349,2.349,0,0,0,2.345,2.347h5.217l.147,1.335a2.822,2.822,0,0,0,2.81,2.51m0,1.5a4.326,4.326,0,0,1-4.3-3.845h-3.874a3.846,3.846,0,0,1-3.845-3.847,3.848,3.848,0,0,1,1.922-3.332v-5.9a10,10,0,0,1,7.7-9.735,2.4,2.4,0,0,1,2.394-2.188,2.4,2.4,0,0,1,2.394,2.188,10.005,10.005,0,0,1,7.7,9.735v5.9a3.846,3.846,0,0,1,1.923,3.332A3.847,3.847,0,0,1-412,441.605h-3.873A4.327,4.327,0,0,1-420.173,445.45Z" fill="#0d2762"/>
      </g>
    </g>
  </g>
</svg>
