<svg xmlns="http://www.w3.org/2000/svg" width="18.504" height="15.741" viewBox="0 0 18.504 15.741">
  <path id="Path_571" data-name="Path 571" d="M-175.3,78.787h-10.891a2.764,2.764,0,0,1-2.75-2.748V65.8a2.763,2.763,0,0,1,2.747-2.75h5.763l1.64,1.641h4.83a.75.75,0,0,1,.75.75.75.75,0,0,1-.75.75h-5.451l-1.64-1.641h-5.139a1.259,1.259,0,0,0-1.25,1.253V76.037a1.259,1.259,0,0,0,1.252,1.25H-175.3a1.257,1.257,0,0,0,1.158-.771l2.109-5.077a1.252,1.252,0,0,0-.672-1.636,1.24,1.24,0,0,0-.481-.1h-8.819l-1.536,4.464a.75.75,0,0,1-.954.465.75.75,0,0,1-.464-.953l1.883-5.476h9.891a2.73,2.73,0,0,1,1.058.212,2.752,2.752,0,0,1,1.479,3.6l-2.109,5.079A2.758,2.758,0,0,1-175.3,78.787Z" transform="translate(188.942 -63.046)" fill="#0d2762"/>
</svg>
