<svg xmlns="http://www.w3.org/2000/svg" width="41.039" height="39.912" viewBox="0 0 41.039 39.912">
  <g id="Pagination_Shell_Achive" data-name="Pagination Shell Achive" transform="translate(-37.941 -532.984)">
    <rect id="Rectangle_361" data-name="Rectangle 361" width="41.039" height="39.911" rx="10" transform="translate(37.941 532.985)" fill="none"/>
    <path id="Path_699" data-name="Path 699" d="M68.979,572.9H47.941a10.012,10.012,0,0,1-10-10V542.984a10.012,10.012,0,0,1,10-10H68.979a10.011,10.011,0,0,1,10,10V562.9A10.011,10.011,0,0,1,68.979,572.9ZM47.941,534.484a8.51,8.51,0,0,0-8.5,8.5V562.9a8.51,8.51,0,0,0,8.5,8.5H68.979a8.51,8.51,0,0,0,8.5-8.5V542.984a8.509,8.509,0,0,0-8.5-8.5Z" fill="#eb3c16"/>
  </g>
</svg>
