<?xml version="1.0" encoding="UTF-8"?>
<svg version="1.1" viewBox="0 0 33 33" xmlns="http://www.w3.org/2000/svg" xmlns:cc="http://creativecommons.org/ns#" xmlns:dc="http://purl.org/dc/elements/1.1/" xmlns:rdf="http://www.w3.org/1999/02/22-rdf-syntax-ns#">
<g transform="translate(-864.81 -535.8)">
<path transform="translate(864.81 535.8)" d="m16.5 0a16.5 16.5 0 0 0-16.5 16.5 16.5 16.5 0 0 0 16.5 16.5 16.5 16.5 0 0 0 16.5-16.5 16.5 16.5 0 0 0-16.5-16.5zm-5.7461 6.5195h4.207v1.502h-4.207c-0.82843 0-1.5 0.67157-1.5 1.5v14.482c0 0.82843 0.67157 1.5 1.5 1.5h12c0.82843 0 1.5-0.67157 1.5-1.5v-7.0137h1.5v7.0137c0 1.6568-1.3432 3-3 3h-12c-1.6568 0-3-1.3432-3-3v-14.484c0-1.6568 1.3432-3 3-3zm11.332 0.94336a1 1 0 0 1 0.73437 0.2793l3.1621 3.1621a1 1 0 0 1 0.09375 1.2832v0.003906h-0.00586-0.011718l-3.1621 3.1621a0.993 0.993 0 0 1-0.7832 0.41797 1 1 0 0 1-0.70703-1.707l1.4512-1.4492h-5.3516a1 1 0 0 1 0-2h5.3594l-1.459-1.459a1 1 0 0 1 0.67969-1.6934zm-10.832 3.5371h3.6582v1h-3.6582v-1zm0 3h5.6523v1h-5.6523v-1zm0 3h8.2461v1h-8.2461v-1zm0 3h11v1h-11v-1z" fill="#3bb3cf"/>
<g data-name="Group 551">
<g data-name="Group 489-2"></g>
<g data-name="Group 491-2">
<g data-name="Group 1566">
<path d="m890.08 547.41-3.162 3.161zm0 0-3.162-3.162z" fill="#fff" data-name="Union 8-13"/>
</g>
</g>
</g>
</g>
</svg>
