<?xml version="1.0" encoding="UTF-8"?>
<svg version="1.1" viewBox="0 0 18 18.001" xmlns="http://www.w3.org/2000/svg" xmlns:cc="http://creativecommons.org/ns#" xmlns:dc="http://purl.org/dc/elements/1.1/" xmlns:rdf="http://www.w3.org/1999/02/22-rdf-syntax-ns#">
<g transform="translate(-530.81 -62.814)">
<g data-name="Rectangle 31-2">
<path d="m544.46 78.314h1.3467c0.82843 0 1.5-0.67157 1.5-1.5v-8c0-0.82843-0.67157-1.5-1.5-1.5h-12c-0.82843 0-1.5 0.67157-1.5 1.5v8c0 0.82843 0.67157 1.5 1.5 1.5h1.3668l0.0572 1.5h-1.424c-1.6568 0-3-1.3431-3-3v-8c0-1.6569 1.3432-3 3-3h12c1.6568 0 3 1.3431 3 3v8c0 1.6569-1.3432 3-3 3h-1.2895z" fill="#56bcd2" data-name="Path 588"/>
</g>
<path d="m534.31 72.814h0.32144v1h-0.32144z" fill="#56bcd2" />
<g data-name="Rectangle 72">
<path d="m543.81 80.814h-8c-0.55228 0-1-0.44772-1-1v-6c0-0.55228 0.44772-1 1-1h8c0.55228 0 1 0.44772 1 1v6c0 0.55228-0.44772 1-1 1zm-8-7v6h8v-6zm0 0v0z" fill="#56bcd2" data-name="Path 590"/>
</g>
<g data-name="Rectangle 73">
<path d="m543.81 66.814h-8c-0.55228 0-1-0.44772-1-1v-2c0-0.55228 0.44772-1 1-1h8c0.55228 0 1 0.44772 1 1v2c0 0.55228-0.44772 1-1 1zm-8-3v2h8v-2zm0 0v0z" fill="#56bcd2" data-name="Path 591"/>
</g>
<path transform="translate(536.31 75.814)" d="m0 0h7v1h-7z" fill="#56bcd2"/>
<path transform="translate(536.31 77.814)" d="m0 0h7v1h-7z" fill="#56bcd2"/>
<circle transform="translate(534.81 69.815)" cx="1" cy="1" r="1" fill="#56bcd2" data-name="Ellipse 23"/>
</g>
<path d="m14.234 10.007h0.32144v1h-0.32144z" fill="#56bcd2"/>
</svg>
