<svg xmlns="http://www.w3.org/2000/svg" width="18" height="18.001" viewBox="0 0 18 18.001">
  <g id="Print" transform="translate(-530.808 -62.814)">
    <g id="Rectangle_31-2" data-name="Rectangle 31-2">
     
      <path id="Path_588" data-name="Path 588" d="M545.808,79.814h-12a3,3,0,0,1-3-3v-8a3,3,0,0,1,3-3h12a3,3,0,0,1,3,3v8A3,3,0,0,1,545.808,79.814Zm-12-12.5a1.5,1.5,0,0,0-1.5,1.5v8a1.5,1.5,0,0,0,1.5,1.5h12a1.5,1.5,0,0,0,1.5-1.5v-8a1.5,1.5,0,0,0-1.5-1.5Z" fill="#FF5200"/>
    </g>
    <rect id="Rectangle_298" data-name="Rectangle 298" width="11" height="1" transform="translate(534.308 72.814)" fill="#FF5200"/>
    <g id="Rectangle_72" data-name="Rectangle 72">
      <path id="Path_589" data-name="Path 589" d="M534.808,72.815h10v7a1,1,0,0,1-1,1h-8a1,1,0,0,1-1-1v-7Z" fill="#fff"/>
      <path id="Path_590" data-name="Path 590" d="M543.808,80.814h-8a1,1,0,0,1-1-1v-6a1,1,0,0,1,1-1h8a1,1,0,0,1,1,1v6A1,1,0,0,1,543.808,80.814Zm-8-7v6h8v-6Zm0-.5v.5h0Z" fill="#FF5200"/>
    </g>
    <g id="Rectangle_73" data-name="Rectangle 73">

      <path id="Path_591" data-name="Path 591" d="M543.808,66.814h-8a1,1,0,0,1-1-1v-2a1,1,0,0,1,1-1h8a1,1,0,0,1,1,1v2A1,1,0,0,1,543.808,66.814Zm-8-3v2h8v-2Zm0-.5v.5h0Z" fill="#FF5200"/>
    </g>
    <rect id="Rectangle_300" data-name="Rectangle 300" width="7" height="1" transform="translate(536.308 75.814)" fill="#FF5200"/>
    <rect id="Rectangle_301" data-name="Rectangle 301" width="7" height="1" transform="translate(536.308 77.814)" fill="#FF5200"/>
    <circle id="Ellipse_23" data-name="Ellipse 23" cx="1" cy="1" r="1" transform="translate(534.808 69.815)" fill="#FF5200"/>
  </g>
</svg>
