<?xml version="1.0" encoding="UTF-8"?>
<svg viewBox="0 0 18 18" xmlns="http://www.w3.org/2000/svg">
<g transform="translate(429.19 -542.8)" data-name="Remove with Circle">
<g data-name="Path 53-8">
<path d="m-420.19 542.8a9 9 0 0 1 9 9 9 9 0 0 1-9 9 9 9 0 0 1-9-9 9 9 0 0 1 9-9z" fill="none" data-name="Path 772"/>
<path d="m-420.19 544.3a7.508 7.508 0 0 0-7.5 7.5 7.508 7.508 0 0 0 7.5 7.5 7.509 7.509 0 0 0 7.5-7.5 7.509 7.509 0 0 0-7.5-7.5m0-1.5a9 9 0 0 1 9 9 9 9 0 0 1-9 9 9 9 0 0 1-9-9 9 9 0 0 1 9-9z" fill="#3bb3cf" data-name="Path 773"/>
</g>
<g data-name="Group 250-7">
<path d="M-415.122,552.547h-10.141a.75.75,0,0,1-.75-.75.75.75,0,0,1,.75-.75h10.141a.75.75,0,0,1,.75.75A.75.75,0,0,1-415.122,552.547Z" fill="#3bb3cf" data-name="Path 774"/>
</g>
</g>
</svg>

