<?xml version="1.0" encoding="UTF-8"?>
<svg viewBox="0 0 17.753 19.716" xmlns="http://www.w3.org/2000/svg">
<g transform="translate(-771.93 -301.18)">
<g fill="#3bb3cf" data-name="Group 243-2">
<path d="m781.53 306.61a0.744 0.744 0 0 1-0.53-0.22l-1.969-1.968s7e-3 0 0 0 9e-3 0 0 0 0 0 0 0 0.01 0 0 0h-0.032s9e-3 0 0 0 0.01 0 0 0v-0.022a0.852 0.852 0 0 1-0.041-0.148v-0.067a0.915 0.915 0 0 1 0.028-0.1l7e-3 -0.019v-6e-3s0 6e-3 0 0v-6e-3s0 0 0 0 0 5e-3 0 0 0 0 0 0v-0.557s0 5e-3 0 0 0 6e-3 0 0 0 0 0 0-7e-3 0 0 0-5e-3 0 0 0-8e-3 0 0 0h5e-3s0 0 0 0l2.001-2.1a0.75 0.75 0 0 1 1.061 1.061l-1.439 1.438 1.439 1.438a0.75 0.75 0 0 1-0.531 1.28z" data-name="Path 689"/>
<path d="M780.81,320.893h-.123a8.885,8.885,0,0,1-8.755-9,8.725,8.725,0,0,1,2.648-6.235.75.75,0,1,1,1.043,1.078,7.223,7.223,0,0,0-2.191,5.168,7.376,7.376,0,0,0,7.275,7.485,7.376,7.376,0,1,0,.2-14.751.794.794,0,0,1-.8-.75.71.71,0,0,1,.7-.75h.119a8.876,8.876,0,0,1-.117,17.752Z" data-name="Path 690"/>
</g>
</g>
</svg>

