<svg xmlns="http://www.w3.org/2000/svg" width="40" height="20" viewBox="0 0 40 20">
  <g id="Results_Active" data-name="Results Active" transform="translate(320.192 -542.797)">
    <g id="Group_1554" data-name="Group 1554">
      <g id="Rectangle_2-4" data-name="Rectangle 2-4">
        <rect id="Rectangle_359" data-name="Rectangle 359" width="40" height="20" rx="5" transform="translate(-320.192 542.797)" fill="#fff"/>
        <path id="Path_691" data-name="Path 691" d="M-285.192,562.8h-30a5.006,5.006,0,0,1-5-5v-10a5.006,5.006,0,0,1,5-5h30a5.006,5.006,0,0,1,5,5v10A5.006,5.006,0,0,1-285.192,562.8Zm-30-18.5a3.5,3.5,0,0,0-3.5,3.5v10a3.5,3.5,0,0,0,3.5,3.5h30a3.5,3.5,0,0,0,3.5-3.5v-10a3.5,3.5,0,0,0-3.5-3.5Z" fill="#eb3c16"/>
      </g>
    </g>
  </g>
</svg>
