<?xml version="1.0" encoding="UTF-8"?>
<svg viewBox="0 0 19.716 17.752" xmlns="http://www.w3.org/2000/svg">
<g transform="translate(-169.06 -182.05)" fill="#0d2762">
<g data-name="Group 243">
<path d="m171.78 192.92h-0.021a0.755 0.755 0 0 1-0.361-0.1h-0.046l-1.969-1.969a0.75 0.75 0 0 1 1.061-1.061l1.438 1.438 1.437-1.438a0.75 0.75 0 1 1 1.061 1.061l-2.07 1.852h-0.041a0.759 0.759 0 0 1-0.489 0.217z" data-name="Path 620"/>
<path d="M179.9,199.8c-.042,0-.112-.026-.126,0a8.728,8.728,0,0,1-6.234-2.648.75.75,0,1,1,1.079-1.043,7.224,7.224,0,0,0,5.166,2.191c.039,0,.07,0,.105,0a7.376,7.376,0,1,0-7.369-7.475.794.794,0,0,1-.75.8.71.71,0,0,1-.75-.7V190.8a8.876,8.876,0,0,1,17.751.24A8.876,8.876,0,0,1,179.9,199.8Z" data-name="Path 621"/>
</g>
<g data-name="Group 244">
<path d="M179.309,193.046a.75.75,0,0,1-.75-.75v-5.438a.75.75,0,1,1,1.5,0V192.3A.75.75,0,0,1,179.309,193.046Z" data-name="Path 622"/>
<path d="M182.622,193.046h-3.313a.75.75,0,0,1,0-1.5h3.313a.75.75,0,0,1,0,1.5Z" data-name="Path 623"/>
</g>
</g>
</svg>

