<?xml version="1.0" encoding="UTF-8"?>
<svg viewBox="0 0 17.99 18" xmlns="http://www.w3.org/2000/svg">
<g transform="translate(549.64 -61.797)" data-name="Right Arrow with Circle">
<g data-name="Group 99">
<g data-name="Path 54">
<path d="M-548.14,70.8a7.506,7.506,0,0,0,7.495,7.5,7.506,7.506,0,0,0,7.495-7.5,7.506,7.506,0,0,0-7.495-7.5,7.506,7.506,0,0,0-7.495,7.5m-1.5,0a9,9,0,0,1,8.995-9,9,9,0,0,1,8.995,9,9,9,0,0,1-8.995,9A9,9,0,0,1-549.64,70.8Z" fill="#3bb3cf" data-name="Path 561"/>
</g>
<g data-name="Group 1535">
<path d="M-542,76.3A.993.993,0,0,1-542.7,76,1,1,0,0,1-543,75.3a1,1,0,0,1,.293-.707l3.793-3.793L-542.7,67A1,1,0,0,1-543,66.3a1,1,0,0,1,.293-.707,1,1,0,0,1,1.414,0l4.5,4.5a1,1,0,0,1,.293.707,1,1,0,0,1-.293.707l-4.5,4.5A.993.993,0,0,1-542,76.3Z" fill="#3bb3cf" data-name="Path 562"/>
</g>
</g>
</g>
</svg>

