<?xml version="1.0" encoding="UTF-8"?>
<svg version="1.1" viewBox="0 0 15.445 15.682" xmlns="http://www.w3.org/2000/svg" xmlns:cc="http://creativecommons.org/ns#" xmlns:dc="http://purl.org/dc/elements/1.1/" xmlns:rdf="http://www.w3.org/1999/02/22-rdf-syntax-ns#">
<g transform="translate(-772.54 -184.8)">
<path transform="translate(772.54 184.8)" d="m6.0117 0a6.011 6.011 0 0 0 -6.0117 6.0117 6.011 6.011 0 0 0 6.0117 6.0098 6.011 6.011 0 0 0 6.0098 -6.0098 6.011 6.011 0 0 0 -6.0098 -6.0117zm0 2a4.011 4.011 0 0 1 4.0098 4.0117 4.011 4.011 0 0 1 -4.0098 4.0098 4.011 4.011 0 0 1 -4.0117 -4.0098 4.011 4.011 0 0 1 4.0117 -4.0117z"/>
<rect transform="translate(781.63 195.53) rotate(-45)" width="2" height="7" fill="#0a0000" data-name="Rectangle 287"/>
</g>
</svg>
