<?xml version="1.0" encoding="UTF-8"?>
<svg viewBox="0 0 25.559 25.559" xmlns="http://www.w3.org/2000/svg">
<g transform="translate(-285.25 -419.24)" data-name="Self Config Nav">
<g data-name="Union 12">
<path d="M298.954,443.3a.5.5,0,0,0,.5-.5v-1.8l1.083-.313a9.007,9.007,0,0,0,1.842-.764l.988-.545.8.8.479.479a.5.5,0,0,0,.706,0l1.309-1.308a.5.5,0,0,0,0-.708l-.479-.479-.8-.8.546-.987a9,9,0,0,0,.763-1.841l.313-1.083h1.8a.5.5,0,0,0,.5-.5V431.09a.5.5,0,0,0-.5-.5H307l-.313-1.084a8.942,8.942,0,0,0-.763-1.841l-.546-.988.8-.8.479-.479a.5.5,0,0,0,0-.706l-1.309-1.31a.5.5,0,0,0-.707,0l-.479.479-.8.8-.987-.545a9.007,9.007,0,0,0-1.842-.764l-1.083-.313v-1.8a.5.5,0,0,0-.5-.5H297.1a.5.5,0,0,0-.5.5v1.8l-1.084.314a8.932,8.932,0,0,0-1.84.763l-.989.545-.8-.8-.478-.478a.5.5,0,0,0-.708,0L289.4,424.7a.5.5,0,0,0,0,.706l.478.48.8.8-.545.988a9,9,0,0,0-.764,1.841l-.313,1.084h-1.8a.5.5,0,0,0-.5.5v1.852a.5.5,0,0,0,.5.5h1.8l.313,1.083a9,9,0,0,0,.764,1.841l.545.987-.8.8-.478.479a.5.5,0,0,0,0,.707l1.31,1.31a.5.5,0,0,0,.706,0l.479-.478.8-.8.987.545a9.022,9.022,0,0,0,1.841.764l1.084.313v1.8a.5.5,0,0,0,.5.5h1.851m0,1.5H297.1a2,2,0,0,1-2-2v-.676a10.476,10.476,0,0,1-2.15-.892l-.478.479a2,2,0,0,1-2.828,0l-1.31-1.309a2,2,0,0,1,0-2.828l.479-.479a10.524,10.524,0,0,1-.891-2.149h-.676a2,2,0,0,1-2-2V431.09a2,2,0,0,1,2-2h.676a10.475,10.475,0,0,1,.891-2.15l-.479-.479a2,2,0,0,1,0-2.828l1.309-1.31a2,2,0,0,1,2.829,0l.479.48a10.389,10.389,0,0,1,2.149-.891v-.677a2,2,0,0,1,2-2h1.851a2,2,0,0,1,2,2v.676a10.476,10.476,0,0,1,2.15.891l.479-.479a2,2,0,0,1,2.827,0l1.31,1.31a2,2,0,0,1,0,2.828l-.479.479a10.394,10.394,0,0,1,.891,2.15h.677a2,2,0,0,1,2,2v1.852a2,2,0,0,1-2,2h-.677a10.465,10.465,0,0,1-.891,2.149l.479.479a2,2,0,0,1,0,2.828l-1.31,1.309a2,2,0,0,1-2.827,0l-.479-.479a10.421,10.421,0,0,1-2.15.892v.676A2,2,0,0,1,298.954,444.8Z" fill="#0d2762" data-name="Path 638"/>
</g>
<g data-name="Ellipse 12">
<path d="m298.03 436.62a4.609 4.609 0 1 1 4.609 -4.609 4.613 4.613 0 0 1 -4.609 4.609zm0-8.219a3.609 3.609 0 1 0 3.609 3.61 3.613 3.613 0 0 0 -3.609 -3.61z" fill="#0d2762" data-name="Path 639"/>
</g>
</g>
</svg>
