<?xml version="1.0" encoding="UTF-8"?>
<svg viewBox="0 0 16.115 16.115" xmlns="http://www.w3.org/2000/svg">
<g transform="translate(-652.25 -302.92)">
<g data-name="Union 12-2">
<path d="M660.306,318.03a.85.85,0,0,0,.842-.771l.059-.685.661-.191a5.515,5.515,0,0,0,1.16-.481l.6-.333.526.443a.846.846,0,0,0,1.14-.048.85.85,0,0,0,.05-1.142l-.444-.526.334-.6a5.633,5.633,0,0,0,.481-1.161l.19-.661.686-.059a.845.845,0,0,0,0-1.683l-.686-.058-.19-.661a5.583,5.583,0,0,0-.482-1.161l-.333-.6.444-.527a.848.848,0,0,0-.05-1.14.844.844,0,0,0-1.14-.049l-.526.444-.6-.334a5.622,5.622,0,0,0-1.16-.481l-.661-.19-.059-.686a.845.845,0,0,0-1.683,0l-.058.686-.661.19a5.609,5.609,0,0,0-1.161.481l-.6.333-.527-.443a.844.844,0,0,0-1.14.049.851.851,0,0,0-.05,1.141l.444.526-.334.6a5.629,5.629,0,0,0-.481,1.161l-.19.661-.685.058a.845.845,0,0,0,0,1.683l.685.059.19.661a5.576,5.576,0,0,0,.482,1.161l.333.6-.444.527a.849.849,0,0,0,.05,1.139.845.845,0,0,0,1.14.051l.526-.444.6.333a5.56,5.56,0,0,0,1.161.482l.661.19.058.685a.85.85,0,0,0,.841.771m0,1a1.845,1.845,0,0,1-1.837-1.685,6.619,6.619,0,0,1-1.369-.568,1.844,1.844,0,0,1-2.6-2.6,6.585,6.585,0,0,1-.568-1.368,1.845,1.845,0,0,1,0-3.676,6.585,6.585,0,0,1,.568-1.368,1.845,1.845,0,0,1,2.6-2.6,6.584,6.584,0,0,1,1.368-.567,1.845,1.845,0,0,1,3.676,0,6.608,6.608,0,0,1,1.368.567,1.844,1.844,0,0,1,2.6,2.6,6.592,6.592,0,0,1,.568,1.368,1.845,1.845,0,0,1,0,3.676,6.665,6.665,0,0,1-.567,1.368,1.845,1.845,0,0,1-2.6,2.6,6.575,6.575,0,0,1-1.368.567A1.846,1.846,0,0,1,660.306,319.03Z" fill="#3bb3cf" data-name="Path 687"/>
</g>
<g data-name="Ellipse 12-2">
<path d="m660.31 313.88a2.906 2.906 0 1 1 2.906 -2.9 2.909 2.909 0 0 1 -2.906 2.9zm0-4.812a1.906 1.906 0 1 0 1.906 1.907 1.909 1.909 0 0 0 -1.906 -1.907z" fill="#3bb3cf" data-name="Path 688"/>
</g>
</g>
</svg>

