<?xml version="1.0" encoding="UTF-8"?>
<svg viewBox="0 0 14.919 15.314" xmlns="http://www.w3.org/2000/svg">
<g transform="translate(-169.51 -764.23)">
<g data-name="Ellipse 112">
<path d="m172.63 774.81a3.118 3.118 0 1 1 3.118 -3.119 3.122 3.122 0 0 1 -3.118 3.119zm0-4.737a1.618 1.618 0 1 0 1.618 1.618 1.62 1.62 0 0 0 -1.618 -1.618z" fill="#eb3c16" data-name="Path 718"/>
</g>
<g data-name="Path 517">
<g data-name="Group 1563">
<path d="m175 770.82l4.426-2.434m0 6.607-4.568-2.512" fill="#00899d" data-name="Path 517-2"/>
<path d="M179.064,775.654l-4.567-2.512.722-1.315,4.568,2.513Zm-3.7-4.174-.723-1.314,4.426-2.434.723,1.315Z" fill="#eb3c16" data-name="Path 719"/>
</g>
</g>
<g data-name="Ellipse 112-2">
<path d="m181.32 779.55a3.118 3.118 0 1 1 3.118 -3.118 3.122 3.122 0 0 1 -3.118 3.118zm0-4.736a1.618 1.618 0 1 0 1.618 1.618 1.619 1.619 0 0 0 -1.618 -1.618z" fill="#eb3c16" data-name="Path 720"/>
</g>
<g data-name="Ellipse 112-4">
<path d="m181.32 770.47a3.118 3.118 0 1 1 3.118 -3.118 3.122 3.122 0 0 1 -3.118 3.118zm0-4.737a1.618 1.618 0 1 0 1.618 1.619 1.62 1.62 0 0 0 -1.618 -1.619z" fill="#eb3c16" data-name="Path 721"/>
</g>
</g>
</svg>

