<?xml version="1.0" encoding="UTF-8"?>
<svg viewBox="0 0 25 28.751" xmlns="http://www.w3.org/2000/svg">
<g transform="translate(-867.81 -296.8)" data-name="Site Icon Config">
<g data-name="Rectangle 248-4">
<path d="M890.808,325.546h-21a2,2,0,0,1-2-2V298.8a2,2,0,0,1,2-2h21a2,2,0,0,1,2,2v24.75A2,2,0,0,1,890.808,325.546Zm-21-27.25a.5.5,0,0,0-.5.5v24.75a.5.5,0,0,0,.5.5h21a.5.5,0,0,0,.5-.5V298.8a.5.5,0,0,0-.5-.5Z" fill="#0d2762" data-name="Path 762"/>
</g>
<rect transform="translate(868.31 302.46)" width="23" height="1" fill="#0d2762" data-name="Rectangle 384"/>
<g data-name="Group 1323-4">
<g data-name="Ellipse 58-4">
<path d="m888.81 301.3a1 1 0 1 1 1 -1 1 1 0 0 1 -1 1zm0-1.5v0.5z" fill="#0d2762" data-name="Path 763"/>
</g>
<g data-name="Ellipse 59-4">
<path d="m885.81 301.3a1 1 0 1 1 1 -1 1 1 0 0 1 -1 1zm0-1.5v0.5z" fill="#0d2762" data-name="Path 764"/>
</g>
<g data-name="Ellipse 60-5">
<path d="m882.81 301.3a1 1 0 1 1 1 -1 1 1 0 0 1 -1 1zm0-1.5v0.5z" fill="#0d2762" data-name="Path 765"/>
</g>
</g>
<g data-name="Group 1325">
<g data-name="Rectangle 12-3">
<path d="m883.01 311.4h-5.4a1.2 1.2 0 0 1 -1.2 -1.2v-1a3 3 0 0 1 3 -3h1.8a3 3 0 0 1 3 3v1a1.2 1.2 0 0 1 -1.2 1.2zm-3.6-4a1.8 1.8 0 0 0 -1.8 1.8v1h5.4v-1a1.8 1.8 0 0 0 -1.8 -1.8z" fill="#0d2762" data-name="Path 767"/>
</g>
<g data-name="Rectangle 11-3">
<path d="m883.81 321.8h-7a3 3 0 0 1 -3 -3v-5.27a3 3 0 0 1 3 -3h7a3 3 0 0 1 3 3v5.27a3 3 0 0 1 -3 3zm-7-10.068a1.8 1.8 0 0 0 -1.8 1.8v5.268a1.8 1.8 0 0 0 1.8 1.8h7a1.8 1.8 0 0 0 1.8 -1.8v-5.27a1.8 1.8 0 0 0 -1.8 -1.8z" fill="#0d2762" data-name="Path 768"/>
</g>
<circle transform="translate(879.01 314.86)" cx="1.3" cy="1.3" r="1.3" fill="#0d2762" data-name="Ellipse 4-3"/>
</g>
</g>
</svg>
