<?xml version="1.0" encoding="UTF-8"?>
<svg viewBox="0 0 25 28.751" xmlns="http://www.w3.org/2000/svg">
<g transform="translate(-867.81 -58.796)" data-name="Site Add Nav">
<g data-name="Rectangle 248-3">
<path d="M890.808,87.546h-21a2,2,0,0,1-2-2V60.8a2,2,0,0,1,2-2h21a2,2,0,0,1,2,2v24.75A2,2,0,0,1,890.808,87.546Zm-21-27.25a.5.5,0,0,0-.5.5v24.75a.5.5,0,0,0,.5.5h21a.5.5,0,0,0,.5-.5V60.8a.5.5,0,0,0-.5-.5Z" fill="#0d2762" data-name="Path 756"/>
</g>
<rect transform="translate(868.31 64.458)" width="23" height="1" fill="#0d2762" data-name="Rectangle 382"/>
<g data-name="Group 1323-3">
<g data-name="Ellipse 58-3">
<path d="m888.81 63.3a1 1 0 1 1 1 -1 1 1 0 0 1 -1 1zm0-1.5v0.5z" fill="#0d2762" data-name="Path 757"/>
</g>
<g data-name="Ellipse 59-3">
<path d="m885.81 63.3a1 1 0 1 1 1 -1 1 1 0 0 1 -1 1zm0-1.5v0.5z" fill="#0d2762" data-name="Path 758"/>
</g>
<g data-name="Ellipse 60-4">
<path d="m882.81 63.3a1 1 0 1 1 1 -1 1 1 0 0 1 -1 1zm0-1.5v0.5z" fill="#0d2762" data-name="Path 759"/>
</g>
</g>
<g data-name="Group 370-2">
<g fill="#0d2762" data-name="Group 250-6">
<path d="M884.293,75.786h-8.485a.75.75,0,0,1,0-1.5h8.485a.75.75,0,0,1,0,1.5Z" data-name="Path 760"/>
<path d="M880.047,80.032a.75.75,0,0,1-.75-.75V70.8a.75.75,0,0,1,1.5,0v8.486A.75.75,0,0,1,880.047,80.032Z" data-name="Path 761"/>
</g>
</g>
</g>
</svg>
