<?xml version="1.0" encoding="UTF-8"?>
<svg version="1.1" viewBox="0 0 18 20.48" xmlns="http://www.w3.org/2000/svg" xmlns:cc="http://creativecommons.org/ns#" xmlns:dc="http://purl.org/dc/elements/1.1/" xmlns:rdf="http://www.w3.org/1999/02/22-rdf-syntax-ns#">
<g transform="translate(549.19 -181.36)" data-name="Stamped Document">
<g data-name="Rectangle 31-4">
<path d="m-534.19 201.84h-12a3 3 0 0 1-3-3v-14.48a3 3 0 0 1 3-3h12a3 3 0 0 1 3 3v14.48a3 3 0 0 1-3 3zm-12-18.98a1.5 1.5 0 0 0-1.5 1.5v14.48a1.5 1.5 0 0 0 1.5 1.5h12a1.5 1.5 0 0 0 1.5-1.5v-14.48a1.5 1.5 0 0 0-1.5-1.5z" fill="#3bb3cf" data-name="Path 597"/>
</g>
<rect x="-545.69" y="194.84" width="4.4956" height="1" fill="#3bb3cf" stroke-width=".63929" data-name="Rectangle 305"/>
<rect transform="translate(-545.69 188.84)" width="11" height="1" fill="#3bb3cf" data-name="Rectangle 306"/>
<path transform="translate(-545.69 191.84)" d="m0 0h5v1l-5 4.6e-7z" fill="#3bb3cf"/>
<rect transform="translate(-545.69 185.84)" width="11" height="1" fill="#3bb3cf" data-name="Rectangle 308"/>
<g data-name="Ellipse 25">
<circle cx="-537.16" cy="194.87" r="2.9568" fill="#3bb3cf" stroke-width=".73921" data-name="Ellipse 124"/>
</g>
</g>
</svg>
