<?xml version="1.0" encoding="UTF-8"?>
<svg viewBox="0 0 16.084 22.444" xmlns="http://www.w3.org/2000/svg">
<g transform="translate(548.48 -660.4)">
<g data-name="Group 1559">
<path d="M-532.4,679.122h-16.084l.018-6.389a2.192,2.192,0,0,1,2.022-1.617c.976-.069,2.852-.036,3.762-.014v-2.52c-1.9-1.68-2.1-2.014-2.247-3.522a4.259,4.259,0,0,1,.989-3.133,4.256,4.256,0,0,1,2.91-1.511c.12-.011.242-.017.365-.017a4.318,4.318,0,0,1,3.218,1.173,4.656,4.656,0,0,1,1.165,3.449,5.02,5.02,0,0,1-2.008,3.6v2.506c.782.009,2.333.023,3.412-.008a2.563,2.563,0,0,1,2.458,1.83l.021.144Zm-15.084-1H-533.4v-4.956a1.563,1.563,0,0,0-1.469-1.052c-1.492.044-3.907,0-3.931,0l-.491-.009v-4.017l.224-.149a4.005,4.005,0,0,0,1.786-2.976,3.759,3.759,0,0,0-.882-2.692,3.367,3.367,0,0,0-2.5-.872c-.092,0-.185,0-.277.013a3.26,3.26,0,0,0-2.233,1.158,3.265,3.265,0,0,0-.758,2.4c.117,1.173.13,1.3,2.081,3.014l.17.15v4l-.515-.016c-.03,0-2.936-.089-4.191,0a1.2,1.2,0,0,0-1.1.824Z" fill="#0d2762" data-name="Path 714"/>
</g>
<rect transform="translate(-547.98 680.84)" width="15.084" height="2" fill="#0d2762" data-name="Rectangle 362"/>
</g>
</svg>

