<?xml version="1.0" encoding="UTF-8"?>
<svg viewBox="0 0 16.493 15.888" xmlns="http://www.w3.org/2000/svg">
<path transform="translate(-52.065 -302.55)" d="M56.526,318.438a2.114,2.114,0,0,1-2.089-2.473l.48-2.8a.616.616,0,0,0-.177-.546L52.7,310.634a2.117,2.117,0,0,1,1.172-3.61l2.817-.409a.615.615,0,0,0,.464-.337l1.259-2.551a2.116,2.116,0,0,1,3.791,0l1.26,2.552a.616.616,0,0,0,.464.338l2.817.409a2.117,2.117,0,0,1,1.789,2.4,2.126,2.126,0,0,1-.617,1.211l-2.034,1.985a.617.617,0,0,0-.178.546l.481,2.8a2.116,2.116,0,0,1-1.729,2.443,2.129,2.129,0,0,1-1.341-.212L60.6,316.871a.622.622,0,0,0-.574,0L57.507,318.2A2.1,2.1,0,0,1,56.526,318.438Zm3.786-3.138a2.12,2.12,0,0,1,.985.243l2.518,1.325a.622.622,0,0,0,.39.062.616.616,0,0,0,.5-.711l-.48-2.8a2.113,2.113,0,0,1,.608-1.873l2.035-1.985a.616.616,0,0,0,.064-.81.61.61,0,0,0-.4-.241l-2.816-.409a2.115,2.115,0,0,1-1.594-1.159l-1.259-2.55a.616.616,0,0,0-.747-.309.619.619,0,0,0-.356.31l-1.258,2.55a2.116,2.116,0,0,1-1.594,1.158l-2.816.409a.616.616,0,0,0-.34,1.051l2.037,1.985a2.119,2.119,0,0,1,.609,1.873l-.481,2.8a.616.616,0,0,0,.894.649l2.518-1.324A2.1,2.1,0,0,1,60.312,315.3Z" fill="#3bb3cf" data-name="Path 666"/>
</svg>
