<svg xmlns="http://www.w3.org/2000/svg" width="16.494" height="15.888" viewBox="0 0 16.494 15.888">
  <path id="Path_717" data-name="Path 717" d="M294.524,778.438a2.13,2.13,0,0,1-.63-.1,2.1,2.1,0,0,1-1.245-1.036,2.124,2.124,0,0,1-.212-1.342l.48-2.8a.615.615,0,0,0-.177-.545l-2.038-1.986a2.114,2.114,0,0,1-.037-2.992,2.125,2.125,0,0,1,1.21-.618l2.816-.409a.614.614,0,0,0,.464-.338l1.259-2.55a2.116,2.116,0,0,1,3.792,0l1.26,2.55a.614.614,0,0,0,.463.338l2.816.409a2.117,2.117,0,0,1,1.174,3.609l-2.036,1.987a.618.618,0,0,0-.177.545l.481,2.8a2.116,2.116,0,0,1-1.728,2.443,2.135,2.135,0,0,1-1.342-.213l-2.518-1.323a.612.612,0,0,0-.573,0l-2.519,1.324A2.106,2.106,0,0,1,294.524,778.438Zm3.788-14.389a.619.619,0,0,0-.554.342L296.5,766.94a2.119,2.119,0,0,1-1.594,1.159l-2.816.409a.62.62,0,0,0-.352.18.616.616,0,0,0,.011.871l2.038,1.986a2.114,2.114,0,0,1,.609,1.872l-.481,2.8a.615.615,0,0,0,.894.648l2.518-1.323a2.111,2.111,0,0,1,1.971,0l2.516,1.322a.615.615,0,0,0,.894-.648l-.48-2.8a2.111,2.111,0,0,1,.608-1.873l2.035-1.986a.616.616,0,0,0,.064-.81.612.612,0,0,0-.4-.241l-2.816-.409a2.121,2.121,0,0,1-1.594-1.159l-1.26-2.551a.612.612,0,0,0-.277-.276A.6.6,0,0,0,298.312,764.049Z" transform="translate(-290.063 -762.55)" fill="#F6B12F"/>
</svg>
