<?xml version="1.0" encoding="UTF-8"?>
<svg viewBox="0 0 14.547 14.823" xmlns="http://www.w3.org/2000/svg">
<g transform="translate(-873.52 -765.15)">
<path d="M885.538,779.974l-.241-.013a13.84,13.84,0,0,1-11.7-10.674,4.693,4.693,0,0,1,.749-3.543l.111-.161.177-.085a3.4,3.4,0,0,1,3.329.191l.143.091.09.144a8.749,8.749,0,0,0,.6.783c.616.753,1.459,1.783.7,2.654-1.374,1.577-.849,2.378.776,3.961,1.363,1.329,2.084,1.6,3.413.467.875-.747,1.908.018,2.663.579a7.554,7.554,0,0,0,.814.556c.952.517,1.114,2.64.668,3.58a2.993,2.993,0,0,1-1.879,1.3c-.089.03-.164.053-.214.076Zm-10.072-13.2a3.184,3.184,0,0,0-.4,2.213,12.332,12.332,0,0,0,10.233,9.462c.051-.018.105-.038.165-.058.224-.076.9-.309,1-.522a2.668,2.668,0,0,0-.09-1.661,9.269,9.269,0,0,1-.931-.635,5.245,5.245,0,0,0-.874-.572c-2.562,2.12-4.375.353-5.352-.6-1.295-1.261-3.243-3.159-.967-5.894a6.385,6.385,0,0,0-.623-.845c-.206-.252-.419-.511-.6-.777A1.9,1.9,0,0,0,875.466,766.772Z" fill="#3bb3cf" data-name="Path 744"/>
</g>
</svg>
