<svg xmlns="http://www.w3.org/2000/svg" width="20" height="20.001" viewBox="0 0 20 20.001">
  <g id="Checkbox_True" data-name="Checkbox True" transform="translate(-409.808 -180.796)">
    
    <g id="Group_1543" data-name="Group 1543">
            <path id="Path_642" data-name="Path 642" d="M417.808,195.8h-.022a.994.994,0,0,1-.422-.1h0l0,0s.009,0,0,0a.994.994,0,0,1-.253-.182h0l0,0-3-3a1,1,0,1,1,1.414-1.414l2.3,2.3,6.793-6.566A1,1,0,1,1,426,188.265l-7.5,7.248a.992.992,0,0,1-.271.188l0,0h0A1,1,0,0,1,417.808,195.8Z" fill="#55ba8c"/>
    </g>
  </g>
</svg>
