<?xml version="1.0" encoding="UTF-8"?>
<svg viewBox="0 0 18 18" xmlns="http://www.w3.org/2000/svg">
<g transform="translate(-770.81 -61.844)" data-name="Tick with Circle">
<g data-name="Ellipse 24">
<path d="m779.81 79.844a9 9 0 1 1 9-9 9.01 9.01 0 0 1-9 9zm0-16.5a7.5 7.5 0 1 0 7.5 7.5 7.508 7.508 0 0 0-7.5-7.5z" fill="#56bcd2" data-name="Path 595"/>
</g>
<path d="M778.412,74.626a.747.747,0,0,1-.53-.219l-2.2-2.2a.75.75,0,0,1,1.06-1.061l1.678,1.678,4.962-4.8a.75.75,0,0,1,1.043,1.079l-5.459,5.279-.024.025A.747.747,0,0,1,778.412,74.626Z" fill="#56bcd2" data-name="Path 596"/>
</g>
</svg>

