<svg xmlns="http://www.w3.org/2000/svg" width="18" height="18" viewBox="0 0 18 18">
  <g id="Tick_with_Circle" data-name="Tick with Circle" transform="translate(-770.808 -61.844)">
    <g id="Ellipse_24" data-name="Ellipse 24">

      <path id="Path_595" data-name="Path 595" d="M779.808,79.844a9,9,0,1,1,9-9A9.01,9.01,0,0,1,779.808,79.844Zm0-16.5a7.5,7.5,0,1,0,7.5,7.5A7.508,7.508,0,0,0,779.808,63.344Z" fill="#FF5200"/>
    </g>
    <path id="Path_596" data-name="Path 596" d="M778.412,74.626a.747.747,0,0,1-.53-.219l-2.2-2.2a.75.75,0,0,1,1.06-1.061l1.678,1.678,4.962-4.8a.75.75,0,0,1,1.043,1.079l-5.459,5.279-.024.025A.747.747,0,0,1,778.412,74.626Z" fill="#FF5200"/>
  </g>
</svg>
