<?xml version="1.0" encoding="UTF-8"?>
<svg viewBox="0 0 19.39 15.506" xmlns="http://www.w3.org/2000/svg">
<g transform="translate(-649.81 -764.75)">
<path d="M669.2,766.581a8.488,8.488,0,0,1-2.281.62,3.922,3.922,0,0,0,1.756-2.176,8.089,8.089,0,0,1-2.534.956,4,4,0,0,0-6.888,2.67,4.144,4.144,0,0,0,.116.894,11.292,11.292,0,0,1-8.2-4.089,3.864,3.864,0,0,0,1.22,5.225,3.87,3.87,0,0,1-1.8-.484v.057a3.7,3.7,0,0,0,.273,1.409,3.968,3.968,0,0,0,2.924,2.418,3.948,3.948,0,0,1-1.052.147,3.535,3.535,0,0,1-.747-.084,4.013,4.013,0,0,0,3.712,2.733,8.052,8.052,0,0,1-4.932,1.671q-.48,0-.956-.053a11.486,11.486,0,0,0,6.1,1.756,11.066,11.066,0,0,0,11.05-8.767,10.763,10.763,0,0,0,.263-2.365v-.5a8.233,8.233,0,0,0,1.977-2.029Z" fill="#3bb3cf" fill-rule="evenodd" data-name="Path 415"/>
</g>
</svg>

