<?xml version="1.0" encoding="UTF-8"?>
<svg viewBox="0 0 40 40" xmlns="http://www.w3.org/2000/svg">
<g transform="translate(-278.81 -651.8)" data-name="Upload Audio Thumb">
<g fill="#cececc" data-name="Group 1349">
<path d="m296.92 680.73a3.857 3.857 0 1 1 3.856-3.858 3.862 3.862 0 0 1-3.856 3.858zm0-6.214a2.357 2.357 0 1 0 2.356 2.358 2.356 2.356 0 0 0-2.356-2.358z" data-name="Path 555"/>
<path d="M300.022,677.628a.75.75,0,0,1-.75-.75V661.734l4.858,1.726a.75.75,0,0,1-.5,1.413l-2.856-1.014v13.019a.75.75,0,0,1-.75.75Z" data-name="Path 556"/>
</g>
<g data-name="Rectangle 286">
<rect transform="translate(278.81 651.8)" width="40" height="40" rx="3" fill="none" data-name="Rectangle 294"/>
<path d="m315.81 691.8h-34a3 3 0 0 1-3-3v-34a3 3 0 0 1 3-3h34a3 3 0 0 1 3 3v34a3 3 0 0 1-3 3zm-34-38.5a1.5 1.5 0 0 0-1.5 1.5v34a1.5 1.5 0 0 0 1.5 1.5h34a1.5 1.5 0 0 0 1.5-1.5v-34a1.5 1.5 0 0 0-1.5-1.5z" fill="#cececc" data-name="Path 557"/>
</g>
</g>
</svg>

