<?xml version="1.0" encoding="UTF-8"?>
<svg viewBox="0 0 40 40" xmlns="http://www.w3.org/2000/svg">
<g transform="translate(-399.81 -651.8)" data-name="Upload Unknown Thumb">
<g data-name="Group 1345">
<g data-name="Group 1202-4">
<g data-name="Group 1201-5">
<g data-name="Rectangle 261-5">
<rect transform="translate(399.81 651.8)" width="40" height="40" rx="3" fill="none" data-name="Rectangle 295"/>
<path d="m436.81 691.8h-34a3 3 0 0 1-3-3v-34a3 3 0 0 1 3-3h34a3 3 0 0 1 3 3v34a3 3 0 0 1-3 3zm-34-38.5a1.5 1.5 0 0 0-1.5 1.5v34a1.5 1.5 0 0 0 1.5 1.5h34a1.5 1.5 0 0 0 1.5-1.5v-34a1.5 1.5 0 0 0-1.5-1.5z" fill="#cececc" data-name="Path 558"/>
</g>
</g>
</g>
</g>
<g data-name="ICON dash">
<g data-name="Ellipse 18-5">
<circle transform="translate(409.81 661.8)" cx="10.5" cy="10.5" r="10.5" fill="none" data-name="Ellipse 119"/>
<path d="m420.31 682.8a10.5 10.5 0 1 1 10.5-10.5 10.5 10.5 0 0 1-10.5 10.5zm0-19.5a9 9 0 1 0 9 9 9.01 9.01 0 0 0-9-9z" fill="#cececc" data-name="Path 559"/>
</g>
<g transform="translate(244.7 252.95)" data-name="Group 1568">
<path d="M175.013,419.506a5.467,5.467,0,0,1,.858-.93,4.744,4.744,0,0,0,.642-.666,1.047,1.047,0,0,0,.21-.642.98.98,0,0,0-.408-.816,1.753,1.753,0,0,0-1.092-.312,2.249,2.249,0,0,0-1.956.924l-1.164-.756a3.372,3.372,0,0,1,1.332-1.086,4.53,4.53,0,0,1,1.92-.378,3.56,3.56,0,0,1,2.142.582,1.874,1.874,0,0,1,.8,1.6,2.148,2.148,0,0,1-.162.864,2.374,2.374,0,0,1-.39.63,7.706,7.706,0,0,1-.6.594,4.628,4.628,0,0,0-.678.72,1.25,1.25,0,0,0-.222.744h-1.524A1.848,1.848,0,0,1,175.013,419.506Zm-.216,3.672a.905.905,0,0,1-.27-.666.885.885,0,0,1,.27-.66.946.946,0,0,1,.69-.264.931.931,0,0,1,.678.264.885.885,0,0,1,.27.66.9.9,0,0,1-.27.666.919.919,0,0,1-.678.27A.934.934,0,0,1,174.8,423.178Z" fill="#cececc" data-name="Path 779"/>
</g>
</g>
</g>
</svg>

