<?xml version="1.0" encoding="UTF-8"?>
<svg viewBox="0 0 40 40" xmlns="http://www.w3.org/2000/svg">
<g transform="translate(-160.81 -649.8)" data-name="Upload Video Thumb">
<g data-name="Group 1347">
<g data-name="Rectangle 272">
<rect transform="translate(170.81 663.94)" width="13.97" height="12.197" rx="3" fill="none" data-name="Rectangle 292"/>
<path d="m181.78 676.13h-7.97a3 3 0 0 1-3-3v-6.2a3 3 0 0 1 3-3h7.97a3 3 0 0 1 3 3v6.2a3 3 0 0 1-3 3zm-7.97-10.7a1.5 1.5 0 0 0-1.5 1.5v6.2a1.5 1.5 0 0 0 1.5 1.5h7.97a1.5 1.5 0 0 0 1.5-1.5v-6.2a1.5 1.5 0 0 0-1.5-1.5z" fill="#cececc" data-name="Path 551"/>
</g>
<g data-name="Subtraction 6">
<path d="M190.222,674.879a1,1,0,0,1-.5-.134l-4.159-2.377v-4.655l4.163-2.387a.964.964,0,0,1,.5-.134,1,1,0,0,1,1,1v7.69a1,1,0,0,1-1,1Z" fill="none" data-name="Path 552"/>
<path d="M189.723,673.015v-5.963l-2.66,1.522v2.919l2.66,1.522m.5,1.864a1,1,0,0,1-.5-.134l-4.163-2.382V667.7l4.163-2.382a.978.978,0,0,1,.5-.134,1,1,0,0,1,1,1v7.688a1,1,0,0,1-1,1h0Z" fill="#cececc" data-name="Path 553"/>
</g>
</g>
<g data-name="Group 1346">
<g data-name="Group 1202-3">
<g data-name="Group 1201-4">
<g data-name="Rectangle 261-4">
<rect transform="translate(160.81 649.8)" width="40" height="40" rx="3" fill="none" data-name="Rectangle 293"/>
<path d="m197.81 689.8h-34a3 3 0 0 1-3-3v-34a3 3 0 0 1 3-3h34a3 3 0 0 1 3 3v34a3 3 0 0 1-3 3zm-34-38.5a1.5 1.5 0 0 0-1.5 1.5v34a1.5 1.5 0 0 0 1.5 1.5h34a1.5 1.5 0 0 0 1.5-1.5v-34a1.5 1.5 0 0 0-1.5-1.5z" fill="#cececc" data-name="Path 554"/>
</g>
</g>
</g>
</g>
</g>
</svg>
