<?xml version="1.0" encoding="UTF-8"?>
<svg viewBox="0 0 27.695 26.647" xmlns="http://www.w3.org/2000/svg">
<g transform="translate(-645.56 -659.54)" fill="#0d2762" data-name="Upload Nav">
<path d="M651.771,680.968a6.241,6.241,0,0,1-1.633-12.257v-.318a8.767,8.767,0,0,1,7.519-8.758,8.75,8.75,0,0,1,9.8,6.87,7.061,7.061,0,0,1-1.242,14.008h-.01a6.97,6.97,0,0,1-2.367-.415.75.75,0,1,1,.51-1.41,5.062,5.062,0,0,0,1.864.325,5.56,5.56,0,0,0,.527-11.094.749.749,0,0,1-.669-.641,7.25,7.25,0,0,0-14.427,1.106v.929a.75.75,0,0,1-.626.739,4.741,4.741,0,0,0,.967,9.412h0a4.732,4.732,0,0,0,1.947-.414.749.749,0,0,1,.619,1.365,6.181,6.181,0,0,1-2.532.548h-.008C651.928,680.966,651.85,680.968,651.771,680.968Z" data-name="Path 716"/>
<g data-name="Group 1324">
<path d="M659.95,673.218v12.07a.9.9,0,0,1-1.8.006V673.218a.9.9,0,1,1,1.8-.007Z" data-name="Path 528"/>
<path d="M659.951,673.215a.9.9,0,0,1-.263.635l-3.293,3.293a.9.9,0,0,1-1.355-1.186.968.968,0,0,1,.085-.084l3.293-3.293a.9.9,0,0,1,1.533.635Z" data-name="Path 529"/>
<path d="M663.25,676.508a.9.9,0,0,1-1.533.635l-3.294-3.293a.9.9,0,0,1,1.185-1.355.964.964,0,0,1,.085.085l3.294,3.293A.9.9,0,0,1,663.25,676.508Z" data-name="Path 530"/>
</g>
</g>
</svg>

