<?xml version="1.0" encoding="UTF-8"?>
<svg viewBox="0 0 40 40" xmlns="http://www.w3.org/2000/svg">
<g transform="translate(80.192 -650.8)" data-name="Upload Document Thumb">
<g data-name="Group 1202">
<g data-name="Group 1201-2">
<g data-name="Rectangle 261-2">
<rect transform="translate(-80.192 650.8)" width="40" height="40" rx="3" fill="none" data-name="Rectangle 290"/>
<path d="m-43.192 690.8h-34a3 3 0 0 1-3-3v-34a3 3 0 0 1 3-3h34a3 3 0 0 1 3 3v34a3 3 0 0 1-3 3zm-34-38.5a1.5 1.5 0 0 0-1.5 1.5v34a1.5 1.5 0 0 0 1.5 1.5h34a1.5 1.5 0 0 0 1.5-1.5v-34a1.5 1.5 0 0 0-1.5-1.5z" fill="#cececc" data-name="Path 535"/>
</g>
</g>
</g>
<g fill="#cececc" data-name="Group 1337">
<path d="M-50.567,664.547h-19.25a.75.75,0,0,1-.75-.75.749.749,0,0,1,.75-.75h19.25a.75.75,0,0,1,.75.75A.75.75,0,0,1-50.567,664.547Z" data-name="Path 536"/>
<path d="M-50.567,669.547h-19.25a.75.75,0,0,1-.75-.75.749.749,0,0,1,.75-.75h19.25a.75.75,0,0,1,.75.75A.75.75,0,0,1-50.567,669.547Z" data-name="Path 537"/>
<path d="M-50.567,674.547h-19.25a.75.75,0,0,1-.75-.75.749.749,0,0,1,.75-.75h19.25a.75.75,0,0,1,.75.75A.75.75,0,0,1-50.567,674.547Z" data-name="Path 538"/>
<path d="M-50.567,674.547h-19.25a.75.75,0,0,1-.75-.75.749.749,0,0,1,.75-.75h19.25a.75.75,0,0,1,.75.75A.75.75,0,0,1-50.567,674.547Z" data-name="Path 539"/>
<path d="M-50.567,679.547h-19.25a.75.75,0,0,1-.75-.75.749.749,0,0,1,.75-.75h19.25a.75.75,0,0,1,.75.75A.75.75,0,0,1-50.567,679.547Z" data-name="Path 540"/>
</g>
</g>
</svg>
