<?xml version="1.0" encoding="UTF-8"?>
<svg viewBox="0 0 40 40" xmlns="http://www.w3.org/2000/svg">
<g transform="translate(-39.808 -649.8)" data-name="Upload Spreadsheet Thumb">
<g data-name="Group 1534">
<g data-name="Group 1340">
<g data-name="Group 1202-2">
<g data-name="Group 1201-3">
<g data-name="Rectangle 261-3">
<rect transform="translate(39.808 649.8)" width="40" height="40" rx="3" fill="none" data-name="Rectangle 291"/>
<path d="m76.808 689.8h-34a3 3 0 0 1-3-3v-34a3 3 0 0 1 3-3h34a3 3 0 0 1 3 3v34a3 3 0 0 1-3 3zm-34-38.5a1.5 1.5 0 0 0-1.5 1.5v34a1.5 1.5 0 0 0 1.5 1.5h34a1.5 1.5 0 0 0 1.5-1.5v-34a1.5 1.5 0 0 0-1.5-1.5z" fill="#cececc" data-name="Path 541"/>
</g>
</g>
</g>
</g>
<g fill="#cececc" data-name="Group 1344">
<g data-name="Group 1341">
<path d="M52.183,665.547h-4a.75.75,0,0,1,0-1.5h4a.75.75,0,0,1,0,1.5Z" data-name="Path 542"/>
<path d="M52.183,670.547h-4a.75.75,0,0,1,0-1.5h4a.75.75,0,0,1,0,1.5Z" data-name="Path 543"/>
<path d="M52.183,675.547h-4a.75.75,0,0,1,0-1.5h4a.75.75,0,0,1,0,1.5Z" data-name="Path 544"/>
</g>
<g data-name="Group 1342">
<path d="M61.912,665.547h-4a.75.75,0,0,1,0-1.5h4a.75.75,0,0,1,0,1.5Z" data-name="Path 545"/>
<path d="M61.912,670.547h-4a.75.75,0,0,1,0-1.5h4a.75.75,0,0,1,0,1.5Z" data-name="Path 546"/>
<path d="M61.912,675.547h-4a.75.75,0,0,1,0-1.5h4a.75.75,0,0,1,0,1.5Z" data-name="Path 547"/>
</g>
<g data-name="Group 1343">
<path d="M71.641,665.547h-4a.75.75,0,0,1,0-1.5h4a.75.75,0,0,1,0,1.5Z" data-name="Path 548"/>
<path d="M71.641,670.547h-4a.75.75,0,0,1,0-1.5h4a.75.75,0,0,1,0,1.5Z" data-name="Path 549"/>
<path d="M71.641,675.547h-4a.75.75,0,0,1,0-1.5h4a.75.75,0,0,1,0,1.5Z" data-name="Path 550"/>
</g>
</g>
</g>
</g>
</svg>

