<?xml version="1.0" encoding="UTF-8"?>
<svg viewBox="0 0 40 40" xmlns="http://www.w3.org/2000/svg">
<g transform="translate(199.19 -649.8)" data-name="Upload Image Thumb">
<g data-name="Group 1533">
<g data-name="Group 1201">
<g data-name="Rectangle 261">
<path d="m-162.19 689.8h-34a3 3 0 0 1-3-3v-34a3 3 0 0 1 3-3h34a3 3 0 0 1 3 3v34a3 3 0 0 1-3 3zm-34-38.5a1.5 1.5 0 0 0-1.5 1.5v34a1.5 1.5 0 0 0 1.5 1.5h34a1.5 1.5 0 0 0 1.5-1.5v-34a1.5 1.5 0 0 0-1.5-1.5z" fill="#cececc" data-name="Path 531"/>
</g>
</g>
</g>
<g transform="translate(-349.56 251.04)" fill="#cececc" data-name="Group 1567">
<path d="M151.362,428.261a.75.75,0,0,1-.591-1.211l7-9a.75.75,0,1,1,1.184.921l-7,9A.752.752,0,0,1,151.362,428.261Z" data-name="Path 775"/>
<path transform="translate(.138)" d="M168.363,431.261a.747.747,0,0,1-.576-.27l-10-12a.75.75,0,1,1,1.152-.96l10,12a.75.75,0,0,1-.576,1.231Z" data-name="Path 776"/>
<path transform="translate(.533)" d="M168.362,431.261a.751.751,0,0,1-.6-1.2l15-20a.75.75,0,0,1,1.2.9l-15,20A.752.752,0,0,1,168.362,431.261Z" data-name="Path 777"/>
<path transform="translate(.533)" d="M188.363,417.261a.747.747,0,0,1-.576-.27l-5-6a.75.75,0,1,1,1.152-.96l5,6a.75.75,0,0,1-.576,1.23Z" data-name="Path 778"/>
</g>
<path d="m-182.47 666.64a4.433 4.433 0 0 1-4.433-4.433 4.432 4.432 0 0 1 4.433-4.433 4.433 4.433 0 0 1 4.433 4.433 4.439 4.439 0 0 1-4.433 4.433zm0-7.366a2.933 2.933 0 0 0-2.933 2.933 2.933 2.933 0 0 0 2.933 2.933 2.933 2.933 0 0 0 2.933-2.933 2.937 2.937 0 0 0-2.933-2.933z" fill="#cececc" data-name="Path 534"/>
</g>
</svg>

