<?xml version="1.0" encoding="UTF-8"?>
<svg viewBox="0 0 18 18.001" xmlns="http://www.w3.org/2000/svg">
<g transform="translate(-530.81 -301.8)" data-name="Warning with Circle">
<g data-name="Ellipse 24-2">
<circle transform="translate(530.81 301.8)" cx="9" cy="9" r="9" fill="none" data-name="Ellipse 134"/>
<path d="m539.81 319.8a9 9 0 1 1 9-9 9.01 9.01 0 0 1-9 9zm0-16.5a7.5 7.5 0 1 0 7.5 7.5 7.509 7.509 0 0 0-7.5-7.5z" fill="#3bb3cf" data-name="Path 676"/>
</g>
<g fill="#3bb3cf" data-name="Group 240">
<path d="m539.81 312.66a1 1 0 0 1-1-1v-5.008a1 1 0 1 1 2 0v5.008a1 1 0 0 1-1 1z" data-name="Path 677"/>
<path d="M539.81,315.73a.99.99,0,0,1-.71-.29,1.016,1.016,0,0,1-.22-.32,1.073,1.073,0,0,1-.07-.39.967.967,0,0,1,.29-.7,1.606,1.606,0,0,1,.15-.13c.06-.03.109-.06.17-.09s.13-.04.189-.06a1,1,0,0,1,.9.28.976.976,0,0,1,.3.7,1.068,1.068,0,0,1-.081.39.872.872,0,0,1-.219.32,1.01,1.01,0,0,1-.321.22A.985.985,0,0,1,539.81,315.73Z" data-name="Path 678"/>
</g>
</g>
</svg>

