<svg xmlns="http://www.w3.org/2000/svg" width="18" height="18.001" viewBox="0 0 18 18.001">
  <g id="Warning_with_Circle" data-name="Warning with Circle" transform="translate(-530.808 -301.796)">
    <g id="Ellipse_24-2" data-name="Ellipse 24-2">
      <circle id="Ellipse_134" data-name="Ellipse 134" cx="9" cy="9" r="9" transform="translate(530.808 301.797)" fill="none"/>
      <path id="Path_676" data-name="Path 676" d="M539.808,319.8a9,9,0,1,1,9-9A9.01,9.01,0,0,1,539.808,319.8Zm0-16.5a7.5,7.5,0,1,0,7.5,7.5A7.509,7.509,0,0,0,539.808,303.3Z" fill="#ffffff"/>
    </g>
    <g id="Group_240" data-name="Group 240">
      <path id="Path_677" data-name="Path 677" d="M539.808,312.662a1,1,0,0,1-1-1v-5.008a1,1,0,1,1,2,0v5.008A1,1,0,0,1,539.808,312.662Z" fill="#ffffff"/>
      <path id="Path_678" data-name="Path 678" d="M539.81,315.73a.99.99,0,0,1-.71-.29,1.016,1.016,0,0,1-.22-.32,1.073,1.073,0,0,1-.07-.39.967.967,0,0,1,.29-.7,1.606,1.606,0,0,1,.15-.13c.06-.03.109-.06.17-.09s.13-.04.189-.06a1,1,0,0,1,.9.28.976.976,0,0,1,.3.7,1.068,1.068,0,0,1-.081.39.872.872,0,0,1-.219.32,1.01,1.01,0,0,1-.321.22A.985.985,0,0,1,539.81,315.73Z" fill="#ffffff"/>
    </g>
  </g>
</svg>
