<?xml version="1.0" encoding="UTF-8"?>
<svg width="21" height="23" version="1.1" viewBox="0 0 21.133 23" xmlns="http://www.w3.org/2000/svg" xmlns:cc="http://creativecommons.org/ns#" xmlns:dc="http://purl.org/dc/elements/1.1/" xmlns:rdf="http://www.w3.org/1999/02/22-rdf-syntax-ns#">
<g transform="matrix(1.3369 0 0 1.3369 733.08 -405.4)">
<g data-name="Rectangle 151">
<path d="m-544.64 320.46h-1.683a2 2 0 0 1-2-2v-1.683a2 2 0 0 1 2-2h1.683a2 2 0 0 1 2 2v1.683a2 2 0 0 1-2 2zm-1.683-4.183a0.5 0.5 0 0 0-0.5 0.5v1.683a0.5 0.5 0 0 0 0.5 0.5h1.683a0.5 0.5 0 0 0 0.5-0.5v-1.683a0.5 0.5 0 0 0-0.5-0.5z" fill="#0d2762" data-name="Path 649"/>
</g>
<g data-name="Rectangle 152">
<path transform="translate(-.285)" d="m-534.22 320.46h-1.684a2 2 0 0 1-2-2v-1.683a2 2 0 0 1 2-2h1.684a2 2 0 0 1 2 2v1.683a2 2 0 0 1-2 2zm-1.684-4.183a0.5 0.5 0 0 0-0.5 0.5v1.683a0.5 0.5 0 0 0 0.5 0.5h1.684a0.5 0.5 0 0 0 0.5-0.5v-1.683a0.5 0.5 0 0 0-0.5-0.5z" fill="#0d2762" data-name="Path 650"/>
</g>
<g data-name="Rectangle 153">
<path d="m-539.43 308.9h-1.684a2 2 0 0 1-2-2v-1.684a2 2 0 0 1 2-2h1.684a2 2 0 0 1 2 2v1.684a2 2 0 0 1-2 2zm-1.684-4.184a0.5 0.5 0 0 0-0.5 0.5v1.684a0.5 0.5 0 0 0 0.5 0.5h1.684a0.5 0.5 0 0 0 0.5-0.5v-1.684a0.5 0.5 0 0 0-0.5-0.5z" fill="#0d2762" data-name="Path 651"/>
</g>
<g transform="translate(0 .338)" fill="#0d2762" data-name="Group 496">
<rect transform="translate(-541.03 307.96)" width="1.5" height="3.638" data-name="Rectangle 342"/>
<g transform="translate(-710.18 -107.46)" data-name="Group 1569">
<path d="m164.74 422.76a0.75 0.75 0 0 1-0.75-0.75v-3a0.75 0.75 0 0 1 1.5 0v3a0.75 0.75 0 0 1-0.75 0.75z" data-name="Path 786"/>
<path d="m174.74 422.76a0.75 0.75 0 0 1-0.75-0.75v-3a0.75 0.75 0 0 1 1.5 0v3a0.75 0.75 0 0 1-0.75 0.75z" data-name="Path 787"/>
<path d="m174.74 419.76h-10a0.75 0.75 0 1 1 0-1.5h10a0.75 0.75 0 0 1 0 1.5z" data-name="Path 788"/>
</g>
</g>
</g>
</svg>
