<svg xmlns="http://www.w3.org/2000/svg" xmlns:xlink="http://www.w3.org/1999/xlink" width="159.348" height="49.688" viewBox="0 0 159.348 49.688">
  <defs>
    <filter id="Rectangle_102" x="0" y="0" width="159.348" height="49.688" filterUnits="userSpaceOnUse">
      <feOffset input="SourceAlpha"/>
      <feGaussianBlur stdDeviation="3" result="blur"/>
      <feFlood flood-opacity="0.161"/>
      <feComposite operator="in" in2="blur"/>
      <feComposite in="SourceGraphic"/>
    </filter>
  </defs>
  <g id="Google" transform="translate(9 9)">
    <g id="button-bg">
      <g transform="matrix(1, 0, 0, 1, -9, -9)" filter="url(#Rectangle_102)">
        <rect id="Rectangle_102-2" data-name="Rectangle 102" width="141.348" height="31.688" rx="2" transform="translate(9 9)" fill="#fff"/>
      </g>
      <rect id="Rectangle_103" data-name="Rectangle 103" width="141.348" height="31.688" rx="2" fill="none"/>
      <rect id="Rectangle_104" data-name="Rectangle 104" width="141.348" height="31.688" rx="2" fill="none"/>
      <rect id="Rectangle_105" data-name="Rectangle 105" width="141.348" height="31.688" rx="2" fill="none"/>
    </g>
    <g id="logo_googleg_48dp" transform="translate(9.943 7.818)">
      <path id="Shape" d="M16.678,9.005a9.259,9.259,0,0,0-.145-1.642H9v3.1h4.3a3.693,3.693,0,0,1-1.6,2.422V14.9h2.585a7.841,7.841,0,0,0,2.385-5.9Z" transform="translate(-1.002 -0.797)" fill="#4285f4" fill-rule="evenodd"/>
      <path id="Shape-2" data-name="Shape" d="M8.1,17.211A7.619,7.619,0,0,0,13.4,15.267l-2.585-2.014A4.817,4.817,0,0,1,3.629,10.71H.957v2.079A7.992,7.992,0,0,0,8.1,17.211Z" transform="translate(-0.107 -1.159)" fill="#34a853" fill-rule="evenodd"/>
      <path id="Shape-3" data-name="Shape" d="M3.523,10.088a4.761,4.761,0,0,1,0-3.05V4.958H.851a8.062,8.062,0,0,0,0,7.209l2.672-2.079Z" transform="translate(0 -0.537)" fill="#fbbc05" fill-rule="evenodd"/>
      <path id="Shape-4" data-name="Shape" d="M8.1,3.192a4.312,4.312,0,0,1,3.057,1.2l2.294-2.3A7.671,7.671,0,0,0,8.1,0,7.992,7.992,0,0,0,.957,4.422L3.629,6.5A4.768,4.768,0,0,1,8.1,3.192Z" transform="translate(-0.107)" fill="#ea4335" fill-rule="evenodd"/>
      <path id="Shape-5" data-name="Shape" d="M0,0H16V16.052H0Z" fill="none" fill-rule="evenodd"/>
    </g>
    <text id="Sign_in_with_Google" data-name="Sign in with Google" transform="translate(74.075 18.186)" fill="#707070" font-size="9" font-family="Roboto-Medium, Roboto" font-weight="500"><tspan x="-38.722" y="0">Sign in with Google</tspan></text>
  </g>
</svg>
