<svg xmlns="http://www.w3.org/2000/svg" width="107" height="20.061" viewBox="0 0 107 20.061">
  <g id="Group_645" data-name="Group 645" transform="translate(-11.93 -15.351)">
    <path id="Path_389" data-name="Path 389" d="M154.252,38.18a6.47,6.47,0,0,1-4.406-1.558l-.266-.233-.265.233a6.5,6.5,0,0,1-4.423,1.558h-1.522V34.1h1.522a2.461,2.461,0,0,0,1.811-.764,2.759,2.759,0,0,0,.749-1.931,2.5,2.5,0,0,0-.756-1.863,2.6,2.6,0,0,0-1.8-.673h-1.522V24.7h1.522a6.639,6.639,0,0,1,4.424,1.739l.266.23.263-.232a6.578,6.578,0,0,1,4.407-1.737h1.522v4.168h-1.522a2.6,2.6,0,0,0-1.806.673,2.5,2.5,0,0,0-.756,1.863,2.762,2.762,0,0,0,.748,1.93,2.466,2.466,0,0,0,1.813.764h1.522V38.18Z" transform="translate(-45.297 -3.224)" fill="#d9000d"/>
    <path id="Path_390" data-name="Path 390" d="M18.352,38.544c-4.444,0-6.422-2.6-6.422-7.04,0-4.419,2.44-7.064,6.474-7.064,4.291,0,6.5,2.646,6.5,7.013C24.9,35.949,22.746,38.544,18.352,38.544Zm.1-10.945c-1.8,0-2.672,1.516-2.672,3.854,0,2.569.745,3.931,2.595,3.931,1.9,0,2.646-1.7,2.646-3.854C21.024,29.219,20.382,27.6,18.456,27.6Z" transform="translate(0 -3.132)" fill="#464545"/>
    <path id="Path_391" data-name="Path 391" d="M37.264,38.249H34.617c-.385,0-.539-.1-.539-.463V26.815c0-1.155.232-1.823,1.593-2.133a25.721,25.721,0,0,1,3.468-.256,7.866,7.866,0,0,1,4.8,1.208A8.715,8.715,0,0,1,48.466,24.4c4.445,0,6.217,2.62,6.217,6.346v7.039c0,.386-.1.463-.565.463H51.5c-.385,0-.54-.1-.54-.463v-6.6c0-2.339-.667-3.6-2.9-3.6a6.291,6.291,0,0,0-2.312.463A8.67,8.67,0,0,1,46.153,31v6.783c0,.386-.1.463-.566.463H42.942c-.385,0-.54-.1-.54-.463V30.849c0-2.106-.539-3.34-2.954-3.34a9.411,9.411,0,0,0-1.645.129V37.786C37.8,38.172,37.726,38.249,37.264,38.249Z" transform="translate(-7.633 -3.119)" fill="#464545"/>
    <path id="Path_392" data-name="Path 392" d="M72.381,27.651V37.8c0,.386-.077.463-.54.463H69.2c-.386,0-.541-.1-.541-.463V26.778c0-1.156.282-1.825,1.593-2.081a31.183,31.183,0,0,1,3.725-.256c4.779,0,6.988,1.773,6.988,6.654V37.8c0,.386-.077.463-.539.463H77.75c-.385,0-.539-.1-.539-.463V30.862c0-2.234-.669-3.34-3.084-3.34A9.925,9.925,0,0,0,72.381,27.651Z" transform="translate(-19.549 -3.132)" fill="#464545"/>
    <path id="Path_393" data-name="Path 393" d="M93.094,20.563a2.1,2.1,0,0,1-2.132-2.106,2.146,2.146,0,1,1,2.132,2.106Zm1.26,14.9H91.733c-.385,0-.539-.1-.539-.463V22.439c0-.359.154-.462.539-.462h2.621c.463,0,.565.077.565.462V35C94.919,35.388,94.816,35.466,94.354,35.466Z" transform="translate(-27.236 -0.335)" fill="#464545"/>
    <path id="Path_394" data-name="Path 394" d="M106.249,21.846a11.851,11.851,0,0,1,2.723.282v-4.7c0-.411.129-.514.566-.514h2.62c.385,0,.565.077.565.514V33.253a8.549,8.549,0,0,1-.051,1.155c-.129,1.157-4.573,1.542-6.115,1.542-4.932,0-6.5-2.9-6.5-6.911C100.057,25.186,101.907,21.846,106.249,21.846Zm.745,10.944a6.867,6.867,0,0,0,1.978-.308V25.314a9.09,9.09,0,0,0-2.107-.257c-1.721,0-2.929,1.207-2.929,4.034C103.936,31.839,105.067,32.79,106.994,32.79Z" transform="translate(-30.37 -0.538)" fill="#464545"/>
    <path id="Path_395" data-name="Path 395" d="M128.2,38.544c-4.445,0-6.423-2.6-6.423-7.04,0-4.419,2.441-7.064,6.475-7.064,4.289,0,6.5,2.646,6.5,7.013C134.749,35.949,132.591,38.544,128.2,38.544Zm.1-10.945c-1.8,0-2.671,1.516-2.671,3.854,0,2.569.745,3.931,2.595,3.931,1.9,0,2.646-1.7,2.646-3.854C130.87,29.219,130.227,27.6,128.3,27.6Z" transform="translate(-37.855 -3.132)" fill="#464545"/>
    <g id="Group_644" data-name="Group 644" transform="translate(112.398 15.351)">
      <path id="Path_396" data-name="Path 396" d="M168.508,21.969a3.31,3.31,0,1,1,3.251-3.294A3.234,3.234,0,0,1,168.508,21.969Zm0-6.067a2.76,2.76,0,1,0,2.656,2.773A2.685,2.685,0,0,0,168.508,15.9Zm-.769,4.6c0,.116-.044.13-.159.13h-.334c-.088,0-.13-.014-.13-.13V16.991c0-.233.086-.349.319-.349h1.292a1.14,1.14,0,0,1,1.232,1.162,1.19,1.19,0,0,1-.579.986.716.716,0,0,1,.435.58l.319,1.1c.029.045.014.16-.13.16h-.348c-.073,0-.132-.014-.145-.115l-.305-1.046a.637.637,0,0,0-.711-.509h-.754Zm.929-3.28h-.929v1.205h.885c.509,0,.726-.276.726-.6A.6.6,0,0,0,168.667,17.223Z" transform="translate(-165.227 -15.351)" fill="#464545"/>
    </g>
  </g>
</svg>
