<svg id="Layer_1" data-name="Layer 1" xmlns="http://www.w3.org/2000/svg" viewBox="0 0 163.26 30.61"><defs><style>.cls-1{fill:#f6b12e;}</style></defs><path class="cls-1" d="M160,44.54a9.86,9.86,0,0,1-6.72-2.38l-.4-.35-.41.35a9.9,9.9,0,0,1-6.75,2.38h-2.32V38.32h2.32a3.73,3.73,0,0,0,2.77-1.17,4.21,4.21,0,0,0,1.14-2.94,3.81,3.81,0,0,0-1.15-2.84,3.94,3.94,0,0,0-2.76-1h-2.32V24h2.32a10.11,10.11,0,0,1,6.75,2.65l.41.35.4-.35A10,10,0,0,1,160,24h2.33v6.36H160a3.93,3.93,0,0,0-2.75,1,3.81,3.81,0,0,0-1.15,2.84,4.19,4.19,0,0,0,1.14,2.94A3.73,3.73,0,0,0,160,38.32h2.33v6.22Z" transform="translate(-11.93 -14.63)"/><path class="cls-1" d="M21.73,45.24c-6.78,0-9.8-4-9.8-10.75s3.72-10.78,9.88-10.78c6.54,0,9.92,4,9.92,10.71C31.73,41.28,28.43,45.24,21.73,45.24Zm.16-16.7c-2.75,0-4.08,2.31-4.08,5.88,0,3.92,1.14,6,4,6s4-2.58,4-5.88C25.81,31,24.83,28.54,21.89,28.54Z" transform="translate(-11.93 -14.63)"/><path class="cls-1" d="M38.94,44.81h-4c-.59,0-.82-.16-.82-.71V27.36c0-1.76.35-2.78,2.43-3.25a38.26,38.26,0,0,1,5.29-.4c3.22,0,5.57.55,7.33,1.85A13.28,13.28,0,0,1,56,23.68c6.78,0,9.49,4,9.49,9.68V44.1c0,.59-.16.71-.87.71h-4c-.59,0-.83-.16-.83-.71V34c0-3.56-1-5.48-4.43-5.48a9.56,9.56,0,0,0-3.52.7,13.19,13.19,0,0,1,.62,4.51V44.1c0,.59-.15.71-.86.71h-4c-.58,0-.82-.16-.82-.71V33.51c0-3.21-.82-5.09-4.51-5.09a15,15,0,0,0-2.51.19V44.1C39.76,44.69,39.65,44.81,38.94,44.81Z" transform="translate(-11.93 -14.63)"/><path class="cls-1" d="M74.34,28.61V44.1c0,.59-.12.71-.82.71h-4c-.59,0-.82-.16-.82-.71V27.28c0-1.76.43-2.78,2.43-3.17a46.21,46.21,0,0,1,5.68-.4c7.29,0,10.66,2.71,10.66,10.16V44.1c0,.59-.11.71-.82.71H82.53c-.58,0-.82-.16-.82-.71V33.51c0-3.41-1-5.09-4.7-5.09A15.75,15.75,0,0,0,74.34,28.61Z" transform="translate(-11.93 -14.63)"/><path class="cls-1" d="M94.22,22.07a3.24,3.24,0,1,1,0-6.47,3.24,3.24,0,1,1,0,6.47Zm1.92,22.74h-4c-.59,0-.83-.16-.83-.71V24.93c0-.55.24-.71.83-.71h4c.7,0,.86.12.86.71V44.1C97,44.69,96.84,44.81,96.14,44.81Z" transform="translate(-11.93 -14.63)"/><path class="cls-1" d="M109.5,23.71a18.2,18.2,0,0,1,4.16.43V17c0-.63.2-.78.86-.78h4c.59,0,.86.12.86.78V41.12a12.67,12.67,0,0,1-.08,1.76c-.19,1.77-7,2.36-9.33,2.36-7.52,0-9.91-4.43-9.91-10.55C100.06,28.81,102.88,23.71,109.5,23.71Zm1.14,16.7a10.24,10.24,0,0,0,3-.47V29a13.54,13.54,0,0,0-3.21-.4c-2.63,0-4.47,1.85-4.47,6.16S107.7,40.41,110.64,40.41Z" transform="translate(-11.93 -14.63)"/><path class="cls-1" d="M131.58,45.24c-6.79,0-9.81-4-9.81-10.75s3.73-10.78,9.88-10.78c6.55,0,9.92,4,9.92,10.71C141.57,41.28,138.28,45.24,131.58,45.24Zm.15-16.7c-2.74,0-4.07,2.31-4.07,5.88,0,3.92,1.13,6,4,6s4-2.58,4-5.88C135.65,31,134.67,28.54,131.73,28.54Z" transform="translate(-11.93 -14.63)"/><path class="cls-1" d="M170.23,24.72a4.93,4.93,0,0,1-5-5,5,5,0,1,1,5,5Zm0-9.25a4.1,4.1,0,0,0-4.12,4.23,4.09,4.09,0,1,0,8.17,0A4.06,4.06,0,0,0,170.23,15.47Zm-1.17,7c0,.17-.07.2-.24.2h-.51c-.14,0-.2,0-.2-.2V17.13c0-.36.13-.53.48-.53h2a1.74,1.74,0,0,1,1.88,1.77,1.81,1.81,0,0,1-.89,1.5,1.11,1.11,0,0,1,.67.89l.48,1.68c0,.07,0,.25-.2.25H172c-.11,0-.2,0-.22-.18l-.46-1.59a1,1,0,0,0-1.09-.78h-1.15Zm1.42-5h-1.42v1.84h1.35c.78,0,1.11-.42,1.11-.91A.92.92,0,0,0,170.48,17.48Z" transform="translate(-11.93 -14.63)"/></svg>